<?xml version='1.0' encoding='utf-8'?>
<svg xmlns="http://www.w3.org/2000/svg" fill="none" viewBox="0 0 1400 1400" width="1400" height="1400"><defs><clipPath id="assetClipPath_qwxMUzre"><path d="m0 0 h 581.71 v 1199.442 h -581.71 v -1199.442 z" id="path_jjVu2N4b" fill="#ffffff" /></clipPath><clipPath id="assetClipPath_bivx0M0K"><path d="m0 0 h 225.304 v 225.304 h -225.304 v -225.304 z" id="path_6M12qaxs" fill="#ffffff" /></clipPath><clipPath id="assetClipPath_G_q9dWIK"><path d="m0 0 h 279.45 v 279.45 h -279.45 v -279.45 z" id="path_7wihvxd-" fill="#ffffff" /></clipPath><clipPath id="assetClipPath_G4Lw-ho_"><path d="m0 0 h 401.13 v 212.394 h -401.13 v -212.394 z" id="path_9ytKNEwp" fill="#ffffff" /></clipPath><clipPath id="assetClipPath_steQvNFV"><path d="m0 0 h 572.203 v 153.204 h -572.203 v -153.204 z" id="path_ctkEGIZt" fill="#ffffff" /></clipPath><clipPath id="assetClipPath_lhLMMVVx"><path d="m0 0 h 572.203 v 153.204 h -572.203 v -153.204 z" id="path_9TwfpGEj" fill="#ffffff" /></clipPath><clipPath id="assetClipPath_sSWwFyXo"><path d="m0 0 h 156.774 v 181.693 h -156.774 v -181.693 z" id="path_qozBdFU6" fill="#ffffff" /></clipPath><clipPath id="assetClipPath_iz2CBfdZ"><path d="m0 0 h 266.406 v 266.406 h -266.406 v -266.406 z" id="path_UoCz06Ql" fill="#ffffff" /></clipPath><clipPath id="assetClipPath_N41MegZf"><path d="m0 0 h 389.59 v 313.001 h -389.59 v -313.001 z" id="path_ibXPZsd4" fill="#ffffff" /></clipPath></defs><g transform="translate(409 101) rotate(-35.568588068429875 291 599)" data-asset-index="0"><g clip-path="url(#assetClipPath_qwxMUzre)" transform="scale(1.000498530195458 0.9987977742983821)" data-asset-index="0"><g id="exy2Md8_7SXocNrBF8riG">
    <rect x="18.037" y="18.037" width="545.637" height="1163.368" rx="73.825" ry="73.825" fill="#FFFFFF" id="UKqfJOe0ko85RGVz4Fra4" />
    <path d="M489.848,1182.405H91.862c-41.259,0-74.825-33.566-74.825-74.825V91.862c0-41.259,33.566-74.825,74.825-74.825h397.986c41.259,0,74.825,33.566,74.825,74.825v1015.718c0,41.259-33.566,74.825-74.825,74.825ZM91.862,19.037c-40.156,0-72.825,32.669-72.825,72.825v1015.718c0,40.156,32.669,72.825,72.825,72.825h397.986c40.156,0,72.825-32.669,72.825-72.825V91.862c0-40.156-32.669-72.825-72.825-72.825H91.862Z" fill="#14181C" id="uSg6Reh32nWwCMFvninmn" />
  </g><path d="M222.22,1046.678c-1.914,1.197-2.774-1.009-1.983-2.718,1.482.22,2.918,1.218,1.983,2.718ZM245.655,1108.439c.024.198.047.396.07.595-1.65,1.873-3.831,5.884.32,5.8,5.557-.834,6.884-9.758-.391-6.396ZM217.277,1037.176c.601-6.005,6.41-8.989,5.33-15.266.506-3.618-5.098-4.437-5.352-.667-1.044,4.688,1.103,10.098-3.801,12.946-3.362,3.179.656,5.114,3.823,2.987ZM226.006,1016.036c2.438-.932,3.669-5.125,4.748-7.443,1.036-4.246-6.517-6.327-8.605-2.451-4.455,3.511-.874,9.427,3.857,9.894ZM164.952,1033.494c5.716-5.751-1.737-19.73-9.465-11.531-6.146,5.292,2.658,18.752,9.465,11.531ZM138.474,995.277c8.994,2.127,14.667-12.565,5.25-15.835-9.545-2.32-16.341,13.555-5.25,15.835ZM220.646,967.953c-5.406,5.626.171,23.114,9.078,17.653,7.713-6.412,1.888-22.589-9.078-17.653ZM149.423,972.059c9.247-.421,19.788-3.154,21.498-14.845,2.842-16.366-17.44-26.112-29.102-12.683-9.461,10.857-17.618,37.987,7.604,27.528ZM208.703,1032.767c-2.431-3.724-10.991-7.204-15.653-3.043-3.248,2.665-1.947,6.429,1.225,8.195,5.039,6.35,19.42,3.629,14.428-5.152ZM45.323,949.647c-8.45,7.99,5.363,22.773,13.49,13.856,8.031-7.978-5.411-21.402-13.49-13.856ZM167.161,1039.08c-10.757,2.127-6.195,16.039.732,3.776.448-.924-.445-2.497-.732-3.776ZM200.998,1178.484c-2.668-16.556,21.447-19.664,19.956-1.673-.106,1.164-.007,2.627,1.755,2.265,5.101-2.028,17.167,5.847,16.726-3.44-4.723-6.801-6.978-14-6.232-22.33.965-4.922,9.7-7.983,12.778-12.804,4.331-3.819-16.762-19.309,6.968-21.556,24.38-5.303,23.717,13.83,27.077,7.623,1.467-10.298-5.973-5.276-10.98-10.511-7.043-4.519-13.218-18.491-.177-18.354,4.047-.348,9.329,5.805,12.303,1.268,1.114-2.436,7.261-6.076,2.546-7.975-5.554.583-12.681,1.988-15.853-4.097-8.006-14.028,1.008-12.765.398-23.258-1.182-10.729,12.159-11.239,16.709-3.354,1.362-2.049-.13-3.684-.545-5.589-.425-3.591,1.804-7.202,5.511-4.526,2.349,1.125,4.328,3.08,7.035,1.623,11.708-5.641,36.217.733,17.044,13.975,3.149.567,5.822,4.166,7.52.424,2.922-4.141,11.885-4.703,13.842.737,1.404,3.118,3.465,4.097,6.598,3.55,20.882,1.877-8.462,27.25-13.232,9.596-.426-1.596-1.45-3.19-3.956-2.871,5.814,24.49-21.553,14.677-16.072,22.43,3.138,5.294,1.905,10.109-3.273,12.779-7.362,2.406,7.499,13.448-9.512,13.473-1.532.068-2.768.184-3.213,1.995-5.851,8.94,5.758,14.416,2.218,22.54-5.208,7.023,13.407,9.211,15.062,16.792,3.884-20.467-8.759-21.702,14.524-35.242,1.802-.619,3.1-1.935,2.042-4.021-2.011-2.353.205-4.86-1.129-7.149-4.889-6.16,2.822-13.177-.186-20.299-1.195-3.577,1.327-5.854,5.038-5.908,4.296-1.235,7.514-5.622,12.224-2.034,3.486,1.982,8.376,2.294,11.353,4.817,3.053,2.702,5.017,3.167,7.555-.223.405-.541,2.047-.726,2.688-.348,2.483.785-3.971,20.627-6.955,16.775-1.413-.667-2.503-.045-2.037,1.558,1.609,4.116-.842,7.251-1.733,10.967.43,3.164-1.419,5.155-3.552,6.954-4.828,4.597-5.148-4.572-9.663-3.278-3.104.479-2.286,10.325-.879,11.793,5.533,3.611,8.698,17.517,14.205,5.619.162-7.333,6.743-12.821,8.675-19.864,3.493-2.91-.872-8.403,3.817-10.046,2.875-1.778,12.287-.927,10.856-5.682-11.464-23.909,15.8-26.889,15.195-1.42,4.356,5.994-4.81,4.556-1.788,7.788,4.459,1.785,7.043,5.438,11.331,1.406,4.438-3.349,15.819,3.447,16.325,8.806,3.811,12.049,29.753-9.147,32.602.214.998,2.417,1.243,4.624-.761,6.671-2.922,5.748,6.798,10.558,7.45,16.792,1.4-2.199,5.607-3.921,4.332-6.466-2.497-.603-4.615-18.002-2.409-18.979,1.899-8.443-12.465-9.448-12.497-18.392-.638-3.843-1.347-7.706-4.03-11.042-6.053-6.049,3.306-11.848,3.361-17.913-3.906-2.536-4.949,3.069-7.702,4.646-.665-.838-1.675-1.59-1.909-2.534-.492-3.242-5.928-1.176-5.043-5.432,1.687-6.921,21.75,3.842,1.998-16.683-3.731,6.024-3.149,17.159-13.404,15.565-6.094.972-10.883,6.034-17.611,2.957-3.946-.716-4.52-.123-5.869-3.843-10.63,2.282-13.307-3.815-13.407-13.604.071-6.393,5.067-8.024,10.676-7.464,8.78-4.187,7.926-11.838,15.662-14.539,19.896-14.304,1.362-13.779,13.182-22.657,5.949-4.577,4.742-13.344,10.011-18.624,4.478-6.94,13.609-4.797,19.859-9.122,11.557-4.98,28.251,1.016,31.062,17.254.387,7.154,6.282,13.756.731,19.988-2.043,5.407-11.006-.847-10.49,6.452,1.645,7.143-9.052.702-7.673,6.062,4.849,14.011-12.789,9.739-8.37,18.13,7.376-2.59,20.768-9.942,25.418.118,2.427,3.793,6.28,1.672,8.073,7.234,5.105-6.775-.085-17.35,8.216-21.083,3.842-3.38,3.734-9.899,7.962-13.477,2.145-4.013-16.438-11.143-6.211-23.72,12.841-2.562,11.213,11.238,17.264,10.136,5.231-2.078,6.658,6.243,9.957,2.271,5.362-8.692,17.199-11.168,23.637-2.472,1.762,4.521,6.813,6.633,7.096,11.748.046,1.381.963,2.227,2.377,1.741.832-.088,1.568-.039,2.228.116v51.427c-3.382,1.285-7.727,2.469-13.199,4.196-9.103,5.752-17.288-3.527-19.329-12.197-8.865-1.805-17.313,5.227-25.125-.341-5.084-2.763-9.258,4.292-13.704-1.768-5.655,5.947-8.81-2.342-10.999-6.768-5.492,2.847-2.285,9.83-10.867,10.831,6.342,2.488,13.429,5.818,19.738,8.94,13.015,1.758,11.287,24.595,21.352,20.062,5.215-6.9,14.383-2.483,21.898-2.556,7.671,1.12,12.496,9.112,12.001,16.579-.469,4.943,5.596,5.737,8.728,8.111,1.369-5.172,4.624-6.523,8.92-8.042-1.52,12.258-6.051,23.588-12.836,33.234-.406-1.89-1.888-3.746-4.683-7.051-2.839,2.297-3.94,6.146-6.122,9.047-2.14,3.992-6.026,1.22-9.539,2.052-3.983,1.249-9.609,1.119-8.426-4.489.351-6.069-9.834-7.917-13.343-12.708.638,4.758.869,13.415-6.018,10.917-1.507-.975-2.945-2.454-3.744-4.044-1.342-2.675-3.686-1.258-5.517-1.723-1.28.519-2.367,2.776-3.359,4.312,3.729,1.21,7.538-1.436,9.322,3.138,1.944,2.803-1.107,2.708-1.302,4.871,3.587,4.204,9.683-14.583,21.31-2.066,2.572,4.783,6.768,11.708,13.374,9.933,2.142-2.244,2.928-6.265,7.043-4.573.958.102,2.165.848,3.371,1.579-13.413,13.725-32.108,22.267-52.768,22.267h-32.972c-.222-.479-.427-.979-.593-1.522-1.691-2.992-1.326-7.15-4.552-9.111-1.342,2.72-5.28,6.521-1.048,8.617.868.339,1.895,1.063,2.938,2.016h-48.94c-.037-1.009-.349-2.115-.244-3.271-.135-6.383,11.343-19.818,2.011-21.716-14.007-6.267-13.351-1.504-15.987,10.927-.589,7.031-13.964,3.24-11.453,11.021.205,1.086.246,2.102.165,3.04h-6.989c.305-.803.692-1.678,1.179-2.635-9.852-3.554-13.582-5.99-14.753,2.635h-157.381c-.242-1-.387-1.991-.231-2.921ZM299.757,1091.646c-.849-2.888.026-6.573-1.797-8.142-5.337,3.875-5.577,7.424,1.797,8.142ZM507.058,1174.225c-1.962-.214-3.774-.007-4.563,2.322-2.232,7.198,12.261-.181,4.563-2.322ZM480.762,1177.878c3.571-.098,7.728-.391,11.428-.55.458-5.6-5.841-5.536-9.715-7.042-.452-.125-1.829,1.079-1.745,1.356.645,2.131-2.275,4.292.032,6.236ZM311.879,1178.258c.211-1.282.421-2.563.631-3.844-.419-.072-.838-.144-1.256-.215-.232,1.277-.464,2.555-.697,3.832.441.076.881.151,1.321.228ZM287.156,1149.669c-.31-1.127-.485-2.328-1.028-3.328-.132-.244-1.473.167-2.632.329-.044,1.238-.075,2.113-.106,2.988,1.255.003,2.51.008,3.765.012ZM272.327,1173.511c1.692,3.046,9.779-6.218,4.943-5.431-2.264.882-5.845,2.029-4.943,5.431ZM44.535,978.078c-.647-.617-1.293-1.234-1.94-1.852-.301.314-.603.628-.904.942,1.047.738,1.686,2.611,2.844.91ZM147.468,1181.405h50.754c-2.658-6.6-7.881-10.835-17.775-8.904-5.017.044-7.391,5.014-11.521,6.214-2.56-3.039-2.405-7.561,2.396-8.085,13.343-4.223,23.552-24.066,7.62-33.156-8.727-7.876-18.988-1.271-24.403,6.307-.156-6.877-1.885-6.148-7.259-7.325-6.747-6.04-12.476,6.284-3.016,7.787-4.254,1.535-.596,10.445-1.067,14.328.748,3.29,3.819,6.709,2.44,10.285-2.783,4.892-.939,8.873,1.833,12.549ZM129.906,1091.334c-4.386-5.367-1.495-12.377,4.131-15.693,2.089-1.426,1.937-4.509-.768-5.25-4.556-1.898-4.915-7.955-9.908-9.853-10.657-4.128-18.732,6.126-20.411,15.263-5.664,4.253-11.758,9.701-13.288,16.845,7.611,23.354,4.085,9.215-3.451,17.136-1.694,7.624,10.69,8.93,14.85,4.881,2.855-2.624,7.562-.361,11.019-.156,15.503,11.023,8.876-8.604,12.661-16.376,5.375,2.272,8.14-2.313,5.165-6.795ZM46.218,1037.676c-.88.148-2.449.148-2.518.47-.293,2.156-.87,4.674,2.106,5,.85-1.703.343-3.633.412-5.47ZM62.949,937.27c-1.566,2.753,4.685,5.826,6.401,3.275,1.469-3.614-4.906-4.624-6.401-3.275ZM135.802,1054.979c3.928-5.787-13.51-13.903-10.34-5.604,2.808,2.323,6.208,8.017,10.34,5.604ZM99.327,1021.484c-3.048-.591-5.823-2.811-8.863-3.434-14.403-.442-3.844,17.182-9.471,17.636-13.513-1.307-15.572,24.773-26.672,11.618-1.162-2.115-5.428-2.561-7.588-1.059-53.022,21.795,14.177,74.124,19.318,16.789,5.761,3.031,9.863,10.008,16.551,7.238,5.977-3.004,17.195-5.576,16.785-13.777-2.08-9.146,9.255-12.668,9.11-20.621-.192-2.039,1.264-4.235,2.011-6.355.913-1.049,9.217,1.516,10.119,2.226,2.015,2.301,4.651,1.905,5.872-.892,1.493-6.808,4.719-11.097,11.175-13.45,5.727-2.307,8.688-9.711.015-8.985-6.9.911-14.546.98-20.616-2.67-2.06-1.366-4.744-2.073-7.391-.866-1.979.902-2.685,2.624-1.226,4.168,3.761,5.45-3.96,13.15-9.129,12.434ZM172.045,1092.089c-3.338-1.358-4.443-5.942-8.546-5.502-7.356.391-12.063-9.447-7.788-15.268.389-.557.596-1.722.279-2.208-2.804-4.653,2.9-9.233,5.976-11.886,3.651-1.181,9.734-10.155,13.472-4.958-.556,7.45-8.31.051-5.016,12.522,7.405-9.263,18.995-12.106,20.677,2.721,1.611,4.297,7.877-1.299,11.22-1.085,3.821-1.703,2.255-6.861,8.3-10.042,4.721-6.797,15.718,1.294,10.161,7.434-2.148,2.754-1.796,4.516,1.555,5.91,2.542-7.191,8.473-9.482,15.916-9.597-11.52-20.916,12.746-13.809,9.241,10.983-2.612,17.785-23.119,9.938-21.614,15.672.425,4.9,1.681,9.417-.853,14.055,4.049-1.042,7.382-.606,10.133,2.378,1.833.816,6.011-1.867,6.857,1.042-.422,15.53-29.455,15.333-18.29-2.704-10.295-2.897-11.975,4.035-13.168,12.325,2.342,3.416,6.026,5.99,5.958,10.804,3.002,6.223.735,16.897-8.006,14.047-2.283-1.133-4.42-.917-6.747-.334-11.003,2.928-11.477-5.604-15.035-12.317-21.356-2.902-2.88-15.085-11.695-20.872-6.384-4.932.323-10.472-2.988-13.119ZM168.016,1066.905c-1.373,1.173-5.539,5.423-1.24,4.59.816-1.232,1.453-2.583,2.155-3.89-.305-.233-.61-.467-.915-.7ZM548.674,976.971c3.001.659,5.219-6.612,2.125-7.827-2.486.538-4.78,6.211-2.125,7.827ZM326.772,1088.207c.035.175.901.186,1.766.339-.048-1.042-.079-1.711-.11-2.381-1.558-.182-1.919.72-1.656,2.042ZM356.819,1130.295c-3.06-1.588-5.458,4.379-3.524,5.647,3.638,1.708,5.551-4.725,3.524-5.647ZM389.709,1092.996c3.023,2.454,5.621.42,5.349-3.554-3.896-.924-8.955-.884-5.349,3.554ZM539.684,894.906c-11.886,7.426,11.451,18.925,15.785,10.019,2.25-8.18-9.879-14.481-15.785-10.019ZM563.673,839.849c-3.135-.135-6.309.548-8.172,1.95-3.548,4.867,2.299,8.26,8.172,8.816v-10.766ZM420.359,1108.535c4.592,3.86,8.329-3.816,4.812-6.958-3.935-3.715-8.563,3.89-4.812,6.958ZM23.577,1135.604c2.548,6.185,5.914,11.944,9.96,17.155-.251-6.452-2.932-19.945-9.96-17.155ZM18.037,978.632v38.367c2.796,1.908,5.823,3.679,8.462,6.042-1.604,1.612-3.525,5.089.276,5.471,4.92.763,4.437-6.092,9.188-5.78,3.272-.334.753,3.818,5.627,4.006-.076-1.501.376-2.558-.601-3.949,8.307-1.14,10.962-11.083,1.096-10.487-4.634.239-5.198,5.359-8.383,7.117-3.31-1.828-4.209-6.633-1.239-9.456,10.434-14.571-1.646-25.288-14.428-31.332ZM64.483,1176.119c9.494-9.013,9.225-28.142-5.666-32.922-9.739-2.902-17.577,4.931-24.778,10.2,7.942,10.002,18.413,17.899,30.444,22.723ZM314.911,1115.478c2.238-1.972,2.388-10.404-2.081-9.485-2.446,2.696-3.192,12.664,2.081,9.485ZM295.715,1135.715c.273-.074.274-1.158.552-2.527-2.421.842-4.554.059-4.049,2.93,1.173-.107,2.376-.101,3.496-.403ZM98.779,1127.522c4.45-4.837-3.437-8.408-6.888-4.43-4.363,4.863,3.691,8.149,6.888,4.43ZM358.043,1083.558c-5.306,2.874,3.46,12.583,4.189,4.701-.238-2.197-1.477-5.321-4.189-4.701ZM294.277,1025.413c1.678-.313,2.763-.289,3.553-.759.404-.24.279-1.369.392-2.095-2.529-.143-3.223-.271-3.946,2.854ZM154.684,1114.992c6.643-6.174-2.939-18.69-8.892-9.787-3.93,5.42,2.609,16.734,8.892,9.787ZM304.098,1023.028c-.884,4.778,7.365,4.61,9.212,2.476,3.672-4.248-8.203-5.875-9.212-2.476ZM108.173,991.989c.261-3.045,3.113-7.639-.243-9.435-5.471.047-8.18,13.882.243,9.435ZM563.673,1012.134v-23.209c-2.004-1.472-2.73-3.238-.146-6.519.049-.081.098-.163.146-.245v-7.804c-6.603-7.068-15.099,6.85-15.83,13.176-1.097,12.918,7.82,23.167,15.83,24.601ZM117.318,959.088c3.331-4.201-1.688-9.681-4.356-5.356-2.472,3.472.52,10.011,4.356,5.356ZM144.789,1095.65c6.295-5.506,4.158-5.561,6.818-12.206,3.741-2.692-2.557-8.829-3.774-3.298-.959,4.103-11.48,1.646-8.193,12.219,2.352,3.743-4,2.374-3.051,5.782,1.79,3.039,7.69.884,8.199-2.498ZM563.673,901.814v-12.774c-1.723,3.605-3.295,8.124,0,12.774ZM563.673,881.463v-14.544c-6.719-.116-12.044,9.054,0,14.544ZM500.123,935.989c1.183-2.553,2.373-2.169,3.807-1.397,7.101,4.317,16.042.609,19.778-6.429,3.014-15.417-13.198-6.068-15.014-15.926-1.534-5.699-6.363-5.902-9.911-1.062-5.089,6.088-.445,14.981-7.44,19.884-6.968,8.67,3.54,8.137,8.78,4.93ZM497.4,986.585c-.137-.626-.274-1.252-.48-2.191-1.173-.053-2.124-.097-3.075-.14.236.71.279,1.813.75,2.043.792.388,1.856.222,2.805.289ZM537.872,975.431c-.513-1.968-2.122-7.035,1.287-7.22,7.083.829,18.218-7.095,8.865-12.769-2.683-2.904-9.413-3.741-8.735-8.289,2.003-32.262-29.337-14.898-21.734,6.788.848,1.786.704,3.346-.242,4.947-2.79,4.393,2.335,10.439-1.585,14.562-3.482,3.639-1.271,10.135,1.986,12.251,4.691,1.961,10.79-2.8,15.978-2.939,2.786,2.325,7.619,3.535,10.329.49,4.016-7.052-1.155-7.015-6.149-7.82Z" fill="#3A7DDD" id="UyWnmxsT45UJpL29dX2AA" /><g id="fojY8H0rflEljXT2Iidt">
    <path d="M1,91.862v1015.718c0,50.182,40.68,90.862,90.862,90.862h397.987c50.181,0,90.862-40.68,90.862-90.862V91.862c0-50.182-40.68-90.862-90.862-90.862H91.862c-50.182,0-90.862,40.68-90.862,90.862ZM18.037,91.862c0-40.708,33.118-73.825,73.825-73.825h397.986c40.707,0,73.825,33.118,73.825,73.825v1015.718c0,40.707-33.118,73.825-73.825,73.825H91.862c-40.707,0-73.825-33.118-73.825-73.825V91.862Z" fill="#14181C" id="Kw58cKZE0iHGe3AeAOx99" />
    <path d="M489.849,1199.442H91.862C41.209,1199.442,0,1158.233,0,1107.58V91.862C0,41.209,41.209,0,91.862,0h397.987C540.502,0,581.711,41.209,581.711,91.862v1015.718c0,50.653-41.209,91.862-91.862,91.862ZM91.862,2C42.312,2,2,42.311,2,91.862v1015.718c0,49.55,40.312,89.862,89.862,89.862h397.987c49.55,0,89.862-40.312,89.862-89.862V91.862c0-49.551-40.312-89.862-89.862-89.862H91.862ZM489.848,1182.405H91.862c-41.259,0-74.825-33.566-74.825-74.825V91.862c0-41.259,33.566-74.825,74.825-74.825h397.986c41.259,0,74.825,33.566,74.825,74.825v1015.718c0,41.259-33.566,74.825-74.825,74.825ZM91.862,19.037c-40.156,0-72.825,32.669-72.825,72.825v1015.718c0,40.156,32.669,72.825,72.825,72.825h397.986c40.156,0,72.825-32.669,72.825-72.825V91.862c0-40.156-32.669-72.825-72.825-72.825H91.862Z" fill="#14181C" id="ucc08Pvwgjm-h913lZQ4z" />
  </g><g id="nbKS0pckF8QiEHiMgSDP">
    <rect x="214.634" y="45.133" width="152.442" height="37.264" rx="18.632" ry="18.632" transform="translate(581.71 127.53) rotate(-180)" fill="#14181C" id="h0D0VmergXVC1JSF5xZHc" />
    <path d="M348.444,83.397h-115.178c-10.825,0-19.632-8.807-19.632-19.632s8.807-19.632,19.632-19.632h115.178c10.825,0,19.632,8.807,19.632,19.632s-8.807,19.632-19.632,19.632ZM233.266,46.134c-9.722,0-17.632,7.909-17.632,17.632s7.909,17.632,17.632,17.632h115.178c9.722,0,17.632-7.909,17.632-17.632s-7.91-17.632-17.632-17.632h-115.178Z" fill="#14181C" id="lGwD0t2XDddYjRzoDJLXV" />
  </g></g></g><g transform="translate(729 1064)" data-asset-index="1"><g clip-path="url(#assetClipPath_bivx0M0K)" transform="scale(1.0030891595355609 1.0030891595355609)" data-asset-index="1"><g id="PWb_zKff7MMlnGCG-kyO">
    <circle cx="112.652" cy="112.652" r="111.639" fill="#14181C" id="ZO0ov9uecUkNJS7KAe-42" />
    <path d="M112.422,225.328c-21.717,0-42.978-6.307-61.558-18.496-25.157-16.504-42.38-41.816-48.499-71.275-6.119-29.458-.399-59.536,16.105-84.692C52.54-1.067,122.507-15.601,174.439,18.472c51.931,34.069,66.462,104.036,32.393,155.968-16.504,25.156-41.816,42.38-71.275,48.498-7.701,1.6-15.448,2.391-23.134,2.391ZM112.823,2.045c-36.068,0-71.46,17.572-92.68,49.917C3.933,76.671-1.685,106.215,4.324,135.151s22.928,53.799,47.637,70.01c24.71,16.211,54.254,21.83,83.188,15.819,28.936-6.01,53.799-22.928,70.01-47.638,33.464-51.009,19.191-119.733-31.817-153.198C154.678,7.899,133.636,2.045,112.823,2.045Z" fill="#14181C" id="GD78PY-XebsdbFGTVUbm2" />
  </g><g id="AF4bxCh8lMVYM1u3PKPkn">
    <circle cx="127.748" cy="89.641" r="36.636" fill="#FFFFFF" id="L0Id0Z7hgWTJyzp3oiiyN" />
    <path d="M127.69,127.266c-7.081,0-14.236-1.991-20.586-6.157-8.406-5.514-14.161-13.972-16.205-23.814-2.044-9.843-.133-19.893,5.381-28.298,11.383-17.352,34.761-22.208,52.112-10.823,8.406,5.514,14.161,13.972,16.205,23.814,2.044,9.843.133,19.893-5.381,28.299-7.217,11.001-19.258,16.979-31.526,16.979ZM127.804,54.016c-11.617,0-23.017,5.66-29.852,16.078-5.221,7.958-7.031,17.474-5.095,26.794,1.936,9.319,7.385,17.327,15.343,22.549,16.429,10.776,38.564,6.18,49.344-10.248h0c5.221-7.959,7.031-17.475,5.095-26.794-1.936-9.32-7.385-17.328-15.343-22.55-6.012-3.943-12.789-5.829-19.492-5.829ZM158.38,109.737h.01-.01Z" fill="#14181C" id="HScDRkmTx4bvn-G3KYLLZ" />
  </g><g id="DVzDAs3lUQaiI2xbU0qna">
    <path d="M93.187,140.376c-30.308-19.884-63.122-29.869-92.137-30.12-.761,37.149,17.003,73.853,50.362,95.739,33.012,21.658,73.252,23.522,106.816,8.548-11.585-27.077-34.107-53.872-65.041-74.167Z" fill="#FFFFFF" id="b8fqst23bgo8U1R1UcM01" />
    <path d="M112.53,225.326c-21.569,0-42.974-6.232-61.666-18.495C18.245,185.432-.75,149.322.05,110.236c.011-.545.456-.979,1-.979h.009c30.398.263,63.311,11.018,92.677,30.283h0c30.024,19.697,53.255,46.194,65.413,74.609.215.503-.013,1.084-.512,1.307-14.805,6.605-30.5,9.87-46.106,9.87ZM2.034,111.27c-.449,38.011,18.163,73.051,49.927,93.89,31.37,20.58,70.529,23.871,104.956,8.869-12.107-27.712-34.902-53.543-64.278-72.816h0c-28.73-18.848-60.862-29.461-90.605-29.942Z" fill="#14181C" id="kht2_0F7qr1vb39Yu3Cff" />
  </g></g></g><g transform="translate(85 334) rotate(-50.426723982033316 140 140)" data-asset-index="2"><g clip-path="url(#assetClipPath_G_q9dWIK)" transform="scale(1.001968151726606 1.001968151726606)" data-asset-index="2"><g id="y0vCxQqXAWVVUAeMTlLhp">
    <path d="M251.641,15.404H27.809c-.552,0-1-.447-1-1s.448-1,1-1h223.832c.552,0,1,.447,1,1s-.448,1-1,1Z" fill="#14181C" id="zDbUQYT-o5zMLP4_EQctA" />
    <path d="M14.404,252.641c-.552,0-1-.447-1-1V27.809c0-.553.448-1,1-1s1,.447,1,1v223.832c0,.553-.448,1-1,1Z" fill="#14181C" id="IqnF9QoS8KyZ4MmqB_x7m" />
    <path d="M14.404,28.809C6.462,28.809,0,22.347,0,14.404S6.462,0,14.404,0s14.405,6.462,14.405,14.404-6.462,14.404-14.405,14.404ZM14.404,2C7.565,2,2,7.565,2,14.404s5.564,12.404,12.404,12.404,12.405-5.564,12.405-12.404S21.244,2,14.404,2Z" fill="#14181C" id="XcIgFCeAkWQAX6XuY90F" />
    <path d="M14.404,279.45C6.462,279.45,0,272.988,0,265.046s6.462-14.405,14.404-14.405,14.405,6.462,14.405,14.405-6.462,14.404-14.405,14.404ZM14.404,252.641c-6.84,0-12.404,5.565-12.404,12.405s5.564,12.404,12.404,12.404,12.405-5.564,12.405-12.404-5.565-12.405-12.405-12.405Z" fill="#14181C" id="cJf8VH1Cv_olOfYRsPaAk" />
  </g><g id="RiI1n2uASEgH6nLgBGnIK">
    <path d="M251.641,266.046H27.809c-.552,0-1-.447-1-1s.448-1,1-1h223.832c.552,0,1,.447,1,1s-.448,1-1,1Z" fill="#14181C" id="tSeusrrsgkX4fBTb9W35" />
    <path d="M265.046,252.641c-.552,0-1-.447-1-1V27.81c0-.553.448-1,1-1s1,.447,1,1v223.831c0,.553-.448,1-1,1Z" fill="#14181C" id="tL1Z_8xb95f6r5DXikN_" />
    <path d="M265.046,28.81c-7.943,0-14.405-6.462-14.405-14.405S257.103,0,265.046,0s14.405,6.462,14.405,14.404-6.462,14.405-14.405,14.405ZM265.046,2c-6.84,0-12.405,5.564-12.405,12.404s5.565,12.405,12.405,12.405,12.405-5.565,12.405-12.405-5.565-12.404-12.405-12.404Z" fill="#14181C" id="evYepLYRcIUeLR0AshNdw" />
    <path d="M265.046,279.45c-7.943,0-14.405-6.462-14.405-14.404s6.462-14.405,14.405-14.405,14.405,6.462,14.405,14.405-6.462,14.404-14.405,14.404ZM265.046,252.641c-6.84,0-12.405,5.565-12.405,12.405s5.565,12.404,12.405,12.404,12.405-5.564,12.405-12.404-5.565-12.405-12.405-12.405Z" fill="#14181C" id="Oql8XBnJ6Taxc2-i-3sZ" />
    <path d="M14.404,279.45C6.462,279.45,0,272.988,0,265.046s6.462-14.405,14.404-14.405,14.405,6.462,14.405,14.405-6.462,14.404-14.405,14.404ZM14.404,252.641c-6.84,0-12.404,5.565-12.404,12.405s5.564,12.404,12.404,12.404,12.405-5.564,12.405-12.404-5.565-12.405-12.405-12.405Z" fill="#14181C" id="y0fTkcSO_x-Bt_S99ENgu" />
  </g></g></g><g transform="translate(221 1048) rotate(-40.33071932942317 200.5 106)" data-asset-index="3"><g clip-path="url(#assetClipPath_G4Lw-ho_)" transform="scale(0.9996759155386035 0.9981449570138516)" data-asset-index="3"><defs>
    <linearGradient id="linearGradient_OMHTJshR" x1="140.092" y1="420.971" x2="453.682" y2="161.279" gradientTransform="translate(159.046 -307.747) rotate(40.111)" gradientUnits="userSpaceOnUse">
      <stop offset="0" stop-color="#3A7DDD" />
      <stop offset="1" stop-color="#14181C" />
    </linearGradient>
  </defs><g id="HOi4pGyi337itCwwjl9uu">
    <rect x="1" y="1" width="399.13" height="210.394" rx="105.197" ry="105.197" fill="url(#linearGradient_OMHTJshR)" id="Q2so1bbdC60mW0nMmCaO4" />
    <path d="M294.933,212.394H106.197C47.64,212.394,0,164.754,0,106.197S47.64,0,106.197,0h188.736C353.49,0,401.129,47.639,401.129,106.197s-47.64,106.197-106.197,106.197ZM106.197,2C48.743,2,2,48.743,2,106.197s46.743,104.197,104.197,104.197h188.736c57.454,0,104.197-46.743,104.197-104.197S352.387,2,294.933,2H106.197Z" fill="#14181C" id="pwKa8uNwEMq-soXlHD67C" />
  </g><g id="CE37JsPgR6uQrCbU4XH5M">
    <circle cx="291.196" cy="106.197" r="85.979" fill="#FFFFFF" id="lZ_m1kadcPFHYFRTMItNc" />
    <path d="M291.195,193.175c-47.96,0-86.979-39.019-86.979-86.979s39.019-86.979,86.979-86.979,86.979,39.019,86.979,86.979-39.019,86.979-86.979,86.979ZM291.195,21.218c-46.857,0-84.979,38.121-84.979,84.979s38.121,84.979,84.979,84.979,84.979-38.121,84.979-84.979-38.122-84.979-84.979-84.979Z" fill="#14181C" id="eKJVK58U5Y5bc2uqzjnrd" />
  </g></g></g><g transform="translate(548 752) rotate(12.013812776043913 286.5 77)" data-asset-index="4"><g clip-path="url(#assetClipPath_steQvNFV)" transform="scale(1.0013928623233364 1.0051956867966894)" data-asset-index="4"><g id="JcxZh1F97ZcAgVtzTLluv">
    <rect x="1" y="1" width="570.203" height="151.204" rx="25.66" ry="25.66" fill="#FFFFFF" id="Rs6FbA6p7st84hEiCiyJF" />
    <path d="M545.543,153.204H26.66C11.96,153.204,0,141.244,0,126.544V26.66C0,11.96,11.96,0,26.66,0h518.883c14.7,0,26.66,11.96,26.66,26.66v99.884c0,14.7-11.959,26.66-26.66,26.66ZM26.66,2C13.063,2,2,13.063,2,26.66v99.884c0,13.598,11.062,24.66,24.66,24.66h518.883c13.598,0,24.66-11.062,24.66-24.66V26.66c0-13.598-11.063-24.66-24.66-24.66H26.66Z" fill="#14181C" id="c-ZiWRzHZnv3arcKdRLYw" />
  </g><g id="hBAL7roIX19Qi3KW_VNG0">
    <rect x="31.97" y="29.612" width="93.981" height="93.981" rx="19.245" ry="19.245" fill="#FFFFFF" id="N-R1YZizA2CEdKgXafGbk" />
    <path d="M106.705,124.593h-55.491c-11.163,0-20.245-9.082-20.245-20.245v-55.491c0-11.163,9.082-20.245,20.245-20.245h55.491c11.163,0,20.245,9.082,20.245,20.245v55.491c0,11.163-9.082,20.245-20.245,20.245ZM51.214,30.611c-10.061,0-18.245,8.185-18.245,18.245v55.491c0,10.061,8.185,18.245,18.245,18.245h55.491c10.061,0,18.245-8.185,18.245-18.245v-55.491c0-10.061-8.185-18.245-18.245-18.245h-55.491Z" fill="#14181C" id="MidR7Fmt5_DRN-de8Jp6T" />
  </g><g id="Vr7snggQikWtyYAYOfPNR">
    <rect x="154.067" y="60.738" width="245.7" height="31.728" fill="#14181C" id="yekH2kiAuqhnXKmvRPMzM" />
    <path d="M399.766,93.466h-245.7c-.552,0-1-.447-1-1v-31.728c0-.553.448-1,1-1h245.7c.552,0,1,.447,1,1v31.728c0,.553-.448,1-1,1ZM155.067,91.466h243.7v-29.728h-243.7v29.728Z" fill="#14181C" id="vtaMclOqnybeJhdJ8_ACF" />
  </g></g></g><g transform="translate(576 913) rotate(12.056212432147415 286 76.5)" data-asset-index="5"><g clip-path="url(#assetClipPath_lhLMMVVx)" transform="scale(0.999645230800957 0.9986684420772303)" data-asset-index="5"><g id="OIo4qbpFzwvHqRmIZLoXI">
    <rect x="1" y="1" width="570.203" height="151.204" rx="25.66" ry="25.66" fill="#FFFFFF" id="hmlPJ9PCNJDKkCnS8gBfq" />
    <path d="M545.543,153.204H26.66C11.96,153.204,0,141.244,0,126.544V26.66C0,11.96,11.96,0,26.66,0h518.883c14.7,0,26.66,11.96,26.66,26.66v99.884c0,14.7-11.959,26.66-26.66,26.66ZM26.66,2C13.063,2,2,13.062,2,26.66v99.884c0,13.598,11.062,24.66,24.66,24.66h518.883c13.598,0,24.66-11.062,24.66-24.66V26.66c0-13.598-11.063-24.66-24.66-24.66H26.66Z" fill="#14181C" id="on8eRBD1qBldL6YqgpzbZ" />
  </g><g id="TIj5R5koWSluD1NSrm8r">
    <rect x="31.97" y="29.612" width="93.981" height="93.981" rx="19.245" ry="19.245" fill="#3A7DDD" id="BWTzMmt7XtGJ1f5lHV2kh" />
    <path d="M106.705,124.593h-55.491c-11.163,0-20.245-9.082-20.245-20.245v-55.491c0-11.163,9.082-20.244,20.245-20.244h55.491c11.163,0,20.245,9.081,20.245,20.244v55.491c0,11.163-9.082,20.245-20.245,20.245ZM51.214,30.612c-10.061,0-18.245,8.185-18.245,18.244v55.491c0,10.061,8.185,18.245,18.245,18.245h55.491c10.061,0,18.245-8.185,18.245-18.245v-55.491c0-10.06-8.185-18.244-18.245-18.244h-55.491Z" fill="#14181C" id="WK0o0g9DYLzlb-yRqaz7s" />
  </g><g id="FOPN2K2lZSOKoVfkxpoCA">
    <rect x="154.067" y="60.738" width="114.55" height="31.728" fill="#14181C" id="UXSvBsq9GWV7MJCn4Yu0X" />
    <path d="M268.616,93.466h-114.55c-.552,0-1-.447-1-1v-31.728c0-.553.448-1,1-1h114.55c.552,0,1,.447,1,1v31.728c0,.553-.448,1-1,1ZM155.067,91.466h112.55v-29.728h-112.55v29.728Z" fill="#14181C" id="hcltlb2YfRsE0JHtLnl3D" />
  </g><g id="G6xC2O-U3PFXDdaB3khB2">
    <rect x="286.102" y="60.738" width="217.289" height="31.728" fill="#14181C" id="MnIFeTuqNYN-t7JTtgvin" />
    <path d="M503.391,93.466h-217.289c-.552,0-1-.447-1-1v-31.728c0-.553.448-1,1-1h217.289c.552,0,1,.447,1,1v31.728c0,.553-.448,1-1,1ZM287.102,91.466h215.289v-29.728h-215.289v29.728Z" fill="#14181C" id="Ce28Xogaf-IydtoQdJQec" />
  </g></g></g><g transform="translate(275 806) rotate(15.34907404670702 118.5 136.5)" data-asset-index="6"><g clip-path="url(#assetClipPath_sSWwFyXo)" transform="scale(1.5117302613953845 1.5025344949998072)" data-asset-index="6"><path id="Glitter" d="M150.121,90.604c-42.516-18.868-55.701-34.236-72.098-84.035C62.057,56.478,49.005,71.934,6.653,91.089c42.516,18.868,55.701,34.236,72.098,84.035,15.966-49.909,29.018-65.365,71.369-84.52Z" fill="#FFFFFF" /><path d="M78.752,176.124c-.432,0-.815-.277-.95-.687C61.412,125.661,48.706,110.845,6.248,92.003c-.36-.16-.593-.516-.594-.911s.229-.752.588-.915C48.535,71.049,61.112,56.149,77.071,6.264c.132-.413.515-.693.948-.695.393-.008.818.276.954.687,16.389,49.776,29.095,64.592,71.554,83.434.36.16.593.516.594.911s-.229.752-.588.915c-42.294,19.128-54.871,34.029-70.829,83.913-.132.413-.515.693-.948.695h-.004ZM9.082,91.08c40.23,18.161,53.907,33.989,69.656,80.835,15.343-46.952,28.882-62.87,68.954-81.302-40.23-18.161-53.907-33.989-69.656-80.835-15.343,46.952-28.882,62.87-68.954,81.302Z" fill="#14181C" id="BhYSWfE95pj4iH6ChiWu1" /></g></g><g transform="translate(1134 1124)" data-asset-index="7"><g clip-path="url(#assetClipPath_iz2CBfdZ)" transform="scale(0.7394728346959153 0.7394728346959153)" data-asset-index="7"><g id="id3lfblXZtX91mESOV9Fj">
    <rect x="1" y="1" width="264.406" height="264.406" fill="#14181C" id="c4yiLWrXANcSpasSwwKV_" />
    <path d="M265.406,266.406H1C.448,266.406,0,265.958,0,265.406V1C0,.448.448,0,1,0h264.406c.552,0,1,.448,1,1v264.406c0,.552-.448,1-1,1ZM2,264.406h262.406V2H2v262.406Z" fill="#14181C" id="Jjxt43GT1VK_rAGvwL6Ul" />
  </g><g id="JPAMMWfeHEk5_CbfANwDF">
    <polygon points="84.8 64.833 72.255 55.072 24.506 131.266 72.254 207.459 84.8 197.701 43.869 131.266 84.8 64.833" fill="#FFFFFF" id="aKYVqaDz7N9SWR3YG-drl" />
    <polygon points="90.546 209.267 109.587 209.267 157.887 62.717 138.847 62.717 90.546 209.267" fill="#FFFFFF" id="EpwkRINaRFRqS95tfvE" />
    <polygon points="194.151 55.072 181.606 64.833 222.537 131.266 181.605 197.701 194.151 207.459 241.9 131.266 194.151 55.072" fill="#FFFFFF" id="WTuWy6UwCCgy_3tyuZ6" />
  </g></g></g><g transform="translate(425 380) rotate(12.110635248419738 202.5 161.5)" data-asset-index="8"><g clip-path="url(#assetClipPath_N41MegZf)" transform="scale(1.0395544033471085 1.0319455848383872)" data-asset-index="8"><g id="UKCmdeO2DIfYFrRY70y35">
    <rect x="1" y="1" width="387.59" height="311.001" rx="34.845" ry="34.845" fill="#3A7DDD" id="P2UivtTi1ZbRM4XCEPel" />
    <path d="M353.745,313H35.845C16.08,313,0,296.92,0,277.156V35.845C0,16.08,16.08,0,35.845,0h317.9C373.51,0,389.59,16.08,389.59,35.845v241.311c0,19.765-16.08,35.845-35.845,35.845ZM35.845,2C17.183,2,2,17.183,2,35.845v241.311c0,18.662,15.183,33.845,33.845,33.845h317.9c18.662,0,33.845-15.183,33.845-33.845V35.845c0-18.662-15.183-33.845-33.845-33.845H35.845Z" fill="#14181C" id="E2DzIiL8Elp0qWhZZ07e" />
  </g><g id="TlKiZvO7Q3VPwzLDtHQTO">
    <path d="M388.59,277.155v-48.386l-84.469-84.469-72.415,72.415-104.742-104.742L1,237.938v39.217c0,19.244,15.601,34.845,34.845,34.845h317.9c19.244,0,34.845-15.601,34.845-34.845Z" fill="#14181C" id="P1GZs2cNTj6mlitKZs5kG" />
    <path d="M353.745,313H35.845C16.08,313,0,296.92,0,277.155v-39.217c0-.265.105-.52.293-.707l125.965-125.965c.375-.375,1.039-.375,1.414,0l104.035,104.035,71.708-71.708c.375-.375,1.039-.375,1.414,0l84.468,84.469c.188.188.293.442.293.707v48.386c0,19.765-16.08,35.845-35.845,35.845ZM2,238.353v38.803c0,18.662,15.183,33.845,33.845,33.845h317.9c18.662,0,33.845-15.183,33.845-33.845v-47.972l-83.468-83.469-71.708,71.708c-.391.391-1.023.391-1.414,0l-104.035-104.035L2,238.353Z" fill="#14181C" id="BU5YnXQun5-xln-dNslx" />
  </g><g id="rgW6T_I5lRu8feBywNpkx">
    <circle cx="276.301" cy="80.629" r="36.105" fill="#14181C" id="mA1CbyCPh4c3edFvWJPFW" />
    <path d="M276.301,117.734c-20.46,0-37.104-16.646-37.104-37.105s16.645-37.105,37.104-37.105,37.105,16.645,37.105,37.105-16.646,37.105-37.105,37.105ZM276.301,45.524c-19.356,0-35.104,15.748-35.104,35.105s15.748,35.105,35.104,35.105,35.105-15.748,35.105-35.105-15.748-35.105-35.105-35.105Z" fill="#14181C" id="y-85k2PT0zF00OglHOtrt" />
  </g></g></g></svg>