<svg enable-background="new 0 0 2500 2500" height="2500" viewBox="0 0 2500 2500" width="2500" xmlns="http://www.w3.org/2000/svg" xmlns:xlink="http://www.w3.org/1999/xlink"><linearGradient id="a" gradientUnits="userSpaceOnUse" x1="1898.6995" x2="2125.408" y1="1894.566" y2="1673.2794"><stop offset="0" stop-color="#3658c1"/><stop offset=".1257" stop-color="#4262c7"/><stop offset=".352" stop-color="#617ed7"/><stop offset=".6511" stop-color="#94aaf1"/><stop offset=".8006" stop-color="#b0c3ff"/><stop offset=".9341" stop-color="#5b78d4"/><stop offset="1" stop-color="#3658c1"/></linearGradient><linearGradient id="b" gradientUnits="userSpaceOnUse" x1="1892.8943" x2="2119.7444" y1="1276.095" y2="948.2075"><stop offset="0" stop-color="#111"/><stop offset=".2603" stop-color="#1c2646"/><stop offset=".6123" stop-color="#2a4188"/><stop offset=".8685" stop-color="#3352b1"/><stop offset="1" stop-color="#3658c1"/></linearGradient><linearGradient id="c"><stop offset="0" stop-color="#3658c1"/><stop offset=".0429" stop-color="#4262c7"/><stop offset=".1197" stop-color="#617dd7"/><stop offset=".2209" stop-color="#92a9f0"/><stop offset=".2751" stop-color="#b0c3ff"/><stop offset=".6044" stop-color="#728cdf"/><stop offset=".8668" stop-color="#4767c9"/><stop offset="1" stop-color="#3658c1"/></linearGradient><linearGradient id="d" gradientUnits="userSpaceOnUse" x1="1814.8192" x2="1691.3738" xlink:href="#c" y1="1088.9894" y2="1408.5078"/><linearGradient id="e" gradientUnits="userSpaceOnUse" x1="1407.0103" x2="1182.4933" xlink:href="#c" y1="858.8672" y2="1300.5408"/><linearGradient id="f" gradientUnits="userSpaceOnUse" x1="1603.625" x2="1774.7876" y1="1923.6472" y2="2124.3801"><stop offset="0" stop-color="#111"/><stop offset=".0298" stop-color="#181e32"/><stop offset=".09" stop-color="#25376f"/><stop offset=".1411" stop-color="#2e499b"/><stop offset=".1805" stop-color="#3454b7"/><stop offset=".2036" stop-color="#3658c1"/><stop offset=".3971" stop-color="#2c4693"/><stop offset=".8125" stop-color="#192036"/><stop offset="1" stop-color="#111"/></linearGradient><path d="m2081.696 1623.638c51.414 63.976 40.247 172.85-24.975 243.164-65.221 70.314-159.81 75.454-211.223 11.478s-40.191-172.853 25.031-243.167 159.754-75.452 211.167-11.475z" fill="#b0c3ff"/><path d="m1938.874 1924.093c-1.527 0-3.045-.027-4.569-.081-35.404-1.255-67.22-17.273-89.586-45.105-51.625-64.24-40.375-173.91 25.077-244.474 34.752-37.466 79.612-58.097 123.113-56.528 35.391 1.255 67.2 17.274 89.567 45.107 51.639 64.257 40.415 173.926-25.021 244.47-33.537 36.156-76.516 56.611-118.581 56.611zm49.468-344.27c-41.492 0-83.92 20.22-117.08 55.969-64.805 69.865-76.013 178.364-24.985 241.862 21.997 27.371 53.284 43.124 88.099 44.358 42.946 1.552 87.254-18.85 121.612-55.891 64.788-69.846 75.971-178.343 24.929-241.858-21.998-27.372-53.278-43.127-88.079-44.361-1.496-.053-2.998-.079-4.496-.079z" fill="#111"/><path d="m2059.839 1647.218c-41.891-52.127-118.943-47.94-172.084 9.351-53.174 57.326-62.296 146.041-20.405 198.169 41.916 52.159 118.968 47.972 172.142-9.354 53.142-57.292 62.263-146.008 20.347-198.166" fill="#fff"/><path d="m1943.451 1892.273c-1.244 0-2.485-.021-3.727-.065-28.903-1.024-54.883-14.109-73.153-36.845-42.125-52.418-32.951-141.902 20.451-199.475 28.354-30.568 64.968-47.385 100.472-46.118 28.897 1.024 54.867 14.102 73.125 36.821 42.139 52.436 32.991 141.919-20.393 199.472-27.378 29.515-62.45 46.21-96.775 46.21zm40.312-280.569c-33.766 0-68.292 16.454-95.275 45.544-52.755 56.875-61.888 145.187-20.359 196.863 17.901 22.274 43.352 35.094 71.666 36.098 34.912 1.233 70.99-15.348 98.964-45.505 52.736-56.855 61.843-145.166 20.301-196.86-17.889-22.259-43.33-35.071-71.637-36.075-1.217-.044-2.44-.065-3.66-.065z" fill="#111"/><path d="m2046.518 1677.423-10.895-13.557-17.652 19.03c-8.728-8.26-18.041-12.183-27.888-11.712-10.095.453-19.518 5.427-28.267 14.859-8.592 9.263-13.409 19.756-14.417 31.443-1.015 11.753 1.737 25.657 8.237 41.847 4.458 11.836 6.511 21.478 6.168 28.858-.344 7.381-2.962 13.738-7.882 19.042-5.82 6.275-12.195 9.044-19.067 8.302-6.896-.772-13.387-4.946-19.547-12.61-6.259-7.788-9.094-16.016-8.521-24.556.58-8.606 4.616-16.89 12.024-24.877l-13.005-16.183c-10.583 11.41-16.449 23.488-17.712 36.306-1.199 12.465 1.996 24.466 9.361 36.016l-15.411 16.614 10.896 13.559 15.287-16.481.178.151c9.562 9.584 19.504 14.366 29.777 14.349 10.215-.014 19.906-4.874 28.903-14.573 5.665-6.107 9.658-12.636 12.003-19.552 2.288-6.913 3.047-14.571 2.222-22.971-.849-8.432-3.493-18.519-7.988-30.26-4.495-11.74-6.698-21.276-6.578-28.645s2.909-14.021 8.358-19.895c5.885-6.344 11.965-9.479 18.202-9.308 6.245.107 12.166 3.641 17.736 10.573 5.326 6.627 7.354 14.357 6.019 23.035-1.281 8.675-5.718 17.107-13.283 25.263l-.561.605 12.932 16.092.561-.605c10.958-11.814 17.399-23.829 19.319-36.044 1.928-12.279-.441-23.974-7.081-35.057l-.049-.061z" fill="#b0c3ff"/><path d="m1892.94 1840.803c-.012 0-.023 0-.036-.001-.29-.01-.562-.146-.744-.373l-10.896-13.56c-.311-.387-.291-.942.046-1.306l14.888-16.051c-7.222-11.59-10.284-23.696-9.101-35.994 1.281-13.002 7.328-25.413 17.974-36.89.198-.214.472-.331.769-.319.29.01.562.146.744.373l13.005 16.183c.311.386.291.942-.046 1.306-7.244 7.81-11.2 15.974-11.759 24.265-.556 8.286 2.237 16.314 8.303 23.862 5.937 7.386 12.288 11.505 18.878 12.242 6.52.706 12.654-1.984 18.223-7.987 4.721-5.091 7.284-11.284 7.617-18.41.336-7.236-1.718-16.811-6.105-28.458-6.522-16.244-9.317-30.478-8.297-42.285 1.023-11.859 5.962-22.638 14.68-32.036 8.912-9.608 18.654-14.715 28.956-15.179 9.798-.462 19.176 3.331 27.882 11.298l16.97-18.296c.198-.214.468-.338.769-.319.29.01.562.146.744.373l10.895 13.557c.311.386.291.942-.046 1.306l-17.104 18.44c6.48 11.084 8.792 22.906 6.869 35.149-1.942 12.357-8.528 24.661-19.574 36.568l-.561.605c-.197.213-.477.344-.769.318-.291-.01-.562-.146-.744-.373l-12.932-16.092c-.311-.387-.291-.942.046-1.307l.561-.604c7.398-7.977 11.781-16.297 13.026-24.729 1.289-8.374-.666-15.862-5.809-22.263-5.358-6.666-11.069-10.098-16.974-10.199-5.913-.147-11.771 2.862-17.452 8.988-5.252 5.662-7.974 12.133-8.091 19.231-.118 7.168 2.073 16.68 6.512 28.271 4.479 11.7 7.188 21.967 8.049 30.516.83 8.463.067 16.33-2.269 23.387-2.392 7.055-6.502 13.754-12.219 19.917-9.155 9.869-19.125 14.88-29.635 14.894-.018 0-.037 0-.054 0-10.294 0-20.336-4.734-29.86-14.075l-14.596 15.736c-.189.205-.455.321-.733.321zm-9.576-14.513 9.63 11.983 14.5-15.632c.364-.393.972-.431 1.381-.082l.178.151c9.365 9.382 19.127 14.11 29.077 14.11h.051c9.932-.014 19.41-4.809 28.172-14.253 5.524-5.956 9.49-12.413 11.789-19.193 2.245-6.782 2.978-14.372 2.175-22.553-.844-8.37-3.511-18.464-7.927-29.999-4.53-11.831-6.766-21.595-6.644-29.02.125-7.606 3.027-14.523 8.624-20.558 6.091-6.566 12.475-9.788 18.963-9.629 6.517.112 12.741 3.795 18.488 10.947 5.509 6.854 7.604 14.867 6.228 23.813-1.303 8.823-5.849 17.493-13.511 25.763l11.666 14.516c10.634-11.534 16.972-23.4 18.838-35.274 1.88-11.974-.456-23.538-6.94-34.37-.245-.387-.246-.938.065-1.272l17.033-18.363-9.629-11.98-16.864 18.181c-.182.196-.434.312-.701.319-.282.008-.527-.089-.72-.272-8.501-8.045-17.631-11.899-27.153-11.44-9.761.438-19.04 5.331-27.582 14.54-8.408 9.064-13.17 19.443-14.154 30.849-.992 11.492 1.756 25.417 8.169 41.388 4.491 11.924 6.588 21.767 6.239 29.277-.355 7.61-3.097 14.23-8.148 19.676-6.022 6.492-12.714 9.394-19.908 8.616-7.138-.799-13.939-5.165-20.218-12.979-6.39-7.95-9.331-16.445-8.739-25.249.575-8.531 4.512-16.889 11.704-24.852l-11.738-14.605c-9.856 10.908-15.462 22.634-16.667 34.868-1.162 12.072 1.937 23.977 9.209 35.38.245.384.199.885-.11 1.218z" fill="#111"/><path d="m2109.514 1636.75c-12.021-14.959-26.4-26.139-42.21-33.591l-27.818-13.112c15.81 7.452 30.189 18.633 42.211 33.592 51.413 63.976 40.247 172.85-24.975 243.164-49.976 53.878-117.194 69.49-169.018 45.062l27.818 13.112c51.825 24.428 119.043 8.816 169.019-45.062 65.22-70.315 76.387-179.188 24.973-243.165z" fill="url(#a)"/><path d="m1966.591 1937.236c-18.064.001-35.477-3.805-51.496-11.355l-27.818-13.112c-.5-.235-.714-.831-.479-1.331.236-.499.832-.714 1.331-.478 25.586 12.061 54.815 14.4 84.527 6.77 30.455-7.822 59.271-25.668 83.331-51.607 64.789-69.847 75.971-178.344 24.929-241.858-11.66-14.509-25.743-25.717-41.857-33.312-.5-.235-.714-.831-.479-1.331.236-.499.832-.715 1.331-.478l27.818 13.111c16.392 7.728 30.712 19.123 42.563 33.87 51.639 64.256 40.415 173.925-25.021 244.47-24.323 26.222-53.474 44.268-84.301 52.185-11.588 2.975-23.111 4.456-34.379 4.456zm-58.908-17.059 8.264 3.896c25.586 12.061 54.815 14.398 84.527 6.77 30.455-7.822 59.27-25.668 83.331-51.607 64.788-69.847 75.97-178.344 24.929-241.858-11.66-14.508-25.743-25.716-41.857-33.313l-8.358-3.939c8.82 6.373 16.834 14.024 23.957 22.889 51.639 64.257 40.415 173.926-25.021 244.47-24.322 26.223-53.473 44.268-84.3 52.186-22.533 5.783-44.804 5.917-65.472.506z" fill="#111"/><g enable-background="new"><path d="m2367.629 1064.356-10.93-30.857c2.502 7.062 1.521 15.341-3.516 23.062l-175.562 269.1c-9.859 15.111-31.465 22.398-48.273 16.28l-484.584-176.374c-8.194-2.982-13.732-8.599-16.114-15.323l10.93 30.858c2.382 6.724 7.919 12.34 16.113 15.323l484.584 176.374c16.808 6.118 38.415-1.169 48.273-16.281l175.562-269.1c5.038-7.721 6.019-16 3.517-23.062z" fill="url(#b)"/><path d="m2152.928 1375.948c-4.462 0-8.869-.71-12.992-2.211l-484.583-176.374c-8.197-2.983-14.133-8.64-16.714-15.928l-10.93-30.858c-.184-.521.088-1.092.609-1.276.519-.187 1.092.087 1.277.608 2.378 6.716 7.888 11.942 15.513 14.718l484.584 176.374c16.368 5.958 37.493-1.17 47.094-15.888l175.562-269.1c4.709-7.219 5.92-15.096 3.411-22.181-.185-.521.088-1.092.608-1.276.52-.186 1.092.088 1.276.608l10.93 30.857c2.723 7.687 1.437 16.189-3.621 23.941l-175.562 269.101c-7.663 11.745-22.323 18.884-36.462 18.885zm-520.118-216.96 7.714 21.779c2.378 6.715 7.888 11.941 15.513 14.717l484.584 176.374c16.369 5.958 37.493-1.17 47.094-15.888l175.562-269.1c4.709-7.218 5.92-15.096 3.411-22.181l-7.703-21.746c-.313 4.768-1.983 9.595-4.963 14.162l-175.562 269.1c-10.08 15.451-32.267 22.931-49.453 16.674l-484.584-176.374c-4.674-1.7-8.613-4.271-11.613-7.517z" fill="#111"/><path d="m2340.579 1018.168c16.809 6.118 22.439 23.318 12.604 38.393l-175.562 269.1c-9.859 15.111-31.465 22.398-48.274 16.281l-484.584-176.374c-16.808-6.118-22.439-23.318-12.581-38.43l175.562-269.1c9.834-15.074 31.441-22.361 48.25-16.244z" fill="#3658c1"/><path d="m2141.998 1345.091c-4.461 0-8.87-.71-12.992-2.211l-484.583-176.374c-8.372-3.047-14.359-8.852-16.858-16.347-2.529-7.584-1.186-15.954 3.782-23.569l175.562-269.1c10.066-15.43 32.238-22.896 49.429-16.636l484.583 176.374c8.375 3.049 14.365 8.856 16.865 16.355 2.526 7.576 1.189 15.93-3.765 23.523l-175.562 269.1c-7.662 11.746-22.32 18.885-36.461 18.885zm-298.725-504.464c-13.458 0-27.402 6.787-34.689 17.956l-175.562 269.1c-4.627 7.093-5.891 14.851-3.559 21.845 2.302 6.903 7.858 12.266 15.645 15.1l484.583 176.374c16.367 5.957 37.493-1.169 47.095-15.887l175.562-269.1c4.613-7.072 5.872-14.813 3.542-21.798-2.303-6.908-7.861-12.273-15.651-15.109l-484.584-176.374c-3.929-1.43-8.132-2.107-12.382-2.107z" fill="#111"/><path d="m1990.041 1001.284c-5.274-1.92-12.583.122-16.052 5.438l-85.346 130.818c-3.476 5.328-1.108 10.897 4.18 12.822 1.682.612 3.657.855 5.835.606l168.718-19.533c9.05-1.073 14.759-9.824 10.29-15.772l-83.371-111.286c-1.081-1.454-2.564-2.477-4.254-3.093" fill="#fff"/><path d="m1896.975 1152.065c-1.592 0-3.097-.255-4.494-.764-2.939-1.07-5.139-3.222-6.033-5.903-.899-2.699-.417-5.684 1.358-8.405l85.346-130.817c3.519-5.393 11.249-8.01 17.231-5.831 1.937.704 3.567 1.892 4.715 3.435l83.369 111.283c1.945 2.59 2.284 5.891.93 9.057-1.888 4.414-6.561 7.675-11.903 8.309l-168.721 19.533c-.61.069-1.21.103-1.798.103zm88.839-150.503c-4.254 0-8.673 2.159-10.987 5.706l-85.346 130.818c-1.435 2.199-1.838 4.571-1.135 6.679.7 2.1 2.457 3.797 4.82 4.657 1.618.588 3.427.772 5.379.552l168.717-19.533c4.642-.551 8.685-3.341 10.297-7.109 1.081-2.526.835-5.037-.691-7.069l-83.372-111.287c-.929-1.248-2.206-2.173-3.796-2.752-1.234-.449-2.552-.662-3.886-.662z" fill="#111"/></g><path d="m149.531 1500.467-13.442 12.506c-7.111-11.784-6.514-24.333.631-30.98l13.442-12.506c-7.145 6.647-7.742 19.196-.631 30.98" fill="#3658c1"/><path d="m136.088 1513.974c-.046 0-.092-.003-.139-.01-.298-.042-.562-.216-.717-.474-7.164-11.871-6.832-25.124.806-32.229l13.44-12.504c0-.001.001-.001.001-.002.404-.374 1.037-.353 1.413.051.376.405.354 1.037-.051 1.414-6.937 6.453-7.125 18.68-.456 29.73.245.405.172.927-.175 1.249l-13.442 12.507c-.184.173-.429.268-.68.268zm8.782-38.198-7.469 6.949c-6.715 6.246-7.106 17.9-1.077 28.663l11.938-11.106c-4.864-8.44-5.972-17.5-3.392-24.506z" fill="#111"/><path d="m390.063 1899.068-13.442 12.506-240.533-398.601 13.443-12.506z" fill="#3658c1"/><path d="m376.621 1912.574c-.046 0-.092-.003-.139-.01-.298-.042-.562-.216-.717-.474l-240.533-398.6c-.244-.405-.171-.927.175-1.249l13.442-12.507c.22-.205.519-.301.82-.258.298.042.562.216.718.474l240.533 398.602c.245.405.172.927-.175 1.249l-13.442 12.506c-.187.172-.431.267-.682.267zm-239.257-399.422 239.477 396.852 11.946-11.114-239.477-396.853z" fill="#111"/><path d="m971.857 1701.441-544.689 214.9c-11.897 4.693-28.505-3.021-37.105-17.273l-13.442 12.506c8.6 14.253 25.207 21.966 37.105 17.273l544.689-214.9c2.067-.815 3.856-1.952 5.357-3.349l13.442-12.506c-1.501 1.397-3.29 2.533-5.357 3.349z" fill="#3658c1"/><path d="m406.249 1931.207c-10.997 0-23.424-7.418-30.483-19.116-.244-.405-.171-.927.175-1.249l13.442-12.506c.22-.205.522-.307.82-.258.298.042.562.216.717.474 8.335 13.812 24.435 21.375 35.882 16.858l544.688-214.899c1.909-.753 3.606-1.812 5.043-3.15.404-.374 1.038-.353 1.413.052.376.404.354 1.036-.051 1.413l-13.442 12.506c-1.621 1.508-3.529 2.701-5.671 3.547l-544.688 214.9c-2.456.967-5.108 1.427-7.845 1.428zm-28.345-19.46c8.447 13.374 24.197 20.611 35.456 16.17l544.688-214.9c1.909-.753 3.606-1.812 5.043-3.15l7.263-6.757-542.818 214.162c-12.023 4.741-28.688-2.701-37.679-16.646z" fill="#111"/><path d="m700.191 1251.248c11.897-4.694 28.529 3.061 37.13 17.314l240.533 398.601c8.601 14.252 5.9 29.584-5.997 34.278l-544.688 214.9c-11.897 4.694-28.504-3.02-37.105-17.273l-240.533-398.601c-8.601-14.252-5.925-29.625 5.972-34.319z" fill="#b0c3ff"/><path d="m419.69 1918.7c-10.996 0-23.423-7.417-30.482-19.115l-240.533-398.602c-5.03-8.336-6.493-17.319-4.015-24.648 1.782-5.271 5.405-9.116 10.477-11.117l544.688-214.9c12.32-4.854 29.522 3.094 38.353 17.728l240.533 398.602c5.021 8.318 6.482 17.283 4.01 24.595-1.784 5.276-5.413 9.125-10.496 11.131l-544.688 214.899c-2.457.967-5.109 1.427-7.847 1.427zm280.501-667.452.367.931-544.688 214.9c-4.507 1.777-7.729 5.2-9.317 9.896-2.289 6.771-.892 15.144 3.833 22.975l240.533 398.602c8.336 13.812 24.434 21.375 35.881 16.858l544.688-214.899c4.518-1.782 7.746-5.209 9.335-9.91 2.283-6.753.888-15.107-3.827-22.921l-240.533-398.602c-8.35-13.835-24.458-21.417-35.906-16.899z" fill="#111"/><path d="m587.55 1540.434-23.882 43.354-56.958-11.46-116.658 326.735c8.6 14.251 25.208 21.965 37.104 17.272l544.69-214.9c11.897-4.694 14.596-20.025 5.996-34.276z" fill="#b0c3ff"/><path d="m419.677 1918.694c-10.996.001-23.423-7.417-30.482-19.114-.155-.257-.187-.57-.086-.853l116.658-326.735c.167-.469.652-.744 1.139-.645l56.238 11.316 23.528-42.712c.231-.421.729-.616 1.185-.469l390.292 126.724c.229.074.423.229.548.435 5.02 8.319 6.481 17.284 4.009 24.596-1.784 5.274-5.413 9.123-10.495 11.128l-544.69 214.9c-2.454.969-5.105 1.429-7.844 1.429zm-28.523-19.745c8.403 13.557 24.299 20.926 35.635 16.455l544.69-214.9c4.518-1.781 7.745-5.208 9.334-9.907 2.252-6.661.926-14.881-3.637-22.604l-389.149-126.353-23.483 42.631c-.21.382-.647.581-1.073.498l-56.109-11.29z" fill="#111"/><path d="m700.18 1251.241-544.69 214.9c-11.897 4.694-14.572 20.068-5.972 34.319l357.192 71.868 56.958 11.46 23.882-43.354 149.759-271.878c-8.601-14.252-25.232-22.008-37.129-17.315" fill="#b0c3ff"/><path d="m563.667 1584.789c-.065 0-.131-.007-.197-.02l-414.149-83.328c-.275-.056-.514-.224-.659-.464-5.03-8.335-6.494-17.318-4.016-24.647 1.783-5.272 5.405-9.117 10.477-11.118l544.69-214.901c12.317-4.855 29.521 3.095 38.351 17.729.185.306.192.687.02.999l-173.641 315.233c-.178.323-.517.517-.876.517zm-413.517-85.221 412.995 83.096 173.006-314.081c-8.43-13.525-24.292-20.874-35.604-16.411l-544.69 214.9c-4.507 1.778-7.729 5.201-9.316 9.898-2.252 6.663-.935 14.877 3.609 22.598z" fill="#111"/><path d="m1834.716 1254.175c-2.75-69.12-49.363-136.228-115.735-162.241 141.716 67.726 2.015 396.919-139.716 344.528 127.868 51.652 262.693-48.441 255.451-182.287z" fill="url(#d)"/><path d="m1649.115 1451.321c-23.744 0-47.27-4.659-70.225-13.932-.507-.204-.755-.777-.558-1.287s.768-.768 1.279-.578c32.325 11.951 66.849 4.528 99.842-21.463 29.56-23.286 55.909-59.929 74.191-103.179 34.091-80.647 37.651-183.281-35.095-218.046-.486-.232-.701-.807-.486-1.301s.779-.729 1.282-.532c65.716 25.756 113.567 92.834 116.369 163.122 3.464 64.024-25.836 124.668-78.38 162.217-24.869 17.772-53.786 29.294-83.624 33.317-8.211 1.108-16.418 1.662-24.595 1.662zm-48.924-8.771c24.053 6.726 48.607 8.451 73.254 5.129 29.516-3.98 58.123-15.379 82.728-32.963 51.984-37.149 80.973-97.145 77.545-160.486 0-.005 0-.009 0-.014-2.523-63.426-42.131-124.207-98.417-153.726 57.323 41.906 51.954 136.023 20.187 211.172-28.76 68.034-83.83 131.478-145.035 131.485-3.404.001-6.824-.196-10.262-.597z" fill="#111"/><path d="m1316.448 882.398c-34.134-30.916-65.998-66.881-85.856-108.887-7.201-245.759-198.901-407.619-411.346-287.028 0 0 .002-.01 0 0-225.84 124.527-384.384 456.235-303.764 754.354 22.19 86.162 102.541 170.401 192.934 193.092 110.297 27.913 220.361-33.73 297.91-108.319 84.813-29.632 168.756-23.005 283.575 4.044-15.975-4.341-30.376-13.704-41.16-26.537-92.966-108.813 43.728-399.654 188.118-335.883-51.002-29.682-90.242-58.232-120.411-84.836z" fill="#3658c1"/><path d="m763.898 1441.799c-18.945.001-37.54-2.297-55.728-6.899-43.322-10.876-86.832-36.806-122.51-73.013-34.953-35.471-60.22-78.371-71.147-120.801-37.96-140.37-24.818-297.671 37.008-442.914 28.971-68.059 66.951-129.917 112.887-183.857 46.433-54.524 98.353-97.82 154.315-128.685.024-.015.048-.028.073-.041 88.864-50.426 180.228-54.324 257.259-10.972 44.895 25.267 82.98 65.776 110.14 117.149 27.725 52.442 43.418 115.199 45.39 181.506 17.263 36.438 45.241 71.89 85.526 108.379 32.608 28.754 73.067 57.259 120.249 84.72.458.267.629.846.388 1.318-.242.472-.811.674-1.295.461-27.613-12.196-56.072-11.983-84.585.632-25.504 11.283-50.342 32.507-71.828 61.375-59.176 79.507-85.569 207.901-30.54 272.311 10.657 12.682 25.096 21.992 40.662 26.222.526.143.841.682.707 1.211s-.666.848-1.199.728c-62.994-14.841-110.131-22.012-152.839-23.252-47.344-1.373-88.649 4.697-129.971 19.106-42.833 41.166-90.142 73.2-136.825 92.648-36.24 15.098-71.759 22.668-106.137 22.668zm55.821-954.435c-55.762 30.749-107.504 73.897-153.788 128.247-45.804 53.785-83.678 115.472-112.569 183.344-61.652 144.833-74.762 301.67-36.915 441.621 10.843 42.104 35.929 84.684 70.638 119.906 35.425 35.95 78.601 61.689 121.574 72.478 50.768 12.847 104.804 7.572 160.608-15.675 46.514-19.378 93.668-51.327 136.365-92.396.104-.1.228-.176.363-.224 41.628-14.545 83.226-20.674 130.895-19.289 39.498 1.146 82.748 7.344 138.72 19.956-10.488-5.108-20.009-12.499-27.634-21.572-25.769-30.161-35.767-76.864-28.147-131.499 7.042-50.485 28.403-102.716 58.608-143.299 21.692-29.145 46.805-50.587 72.623-62.01 25.244-11.169 50.454-12.79 75.097-4.868-42.95-25.666-80.04-52.189-110.371-78.937-.003-.003-.006-.006-.01-.009-40.557-36.733-68.716-72.453-86.088-109.201-.059-.125-.091-.261-.095-.398-1.936-66.078-17.554-128.611-45.165-180.839-26.979-51.033-64.793-91.263-109.353-116.341-76.41-43.002-167.088-39.1-255.335 10.993-.007.004-.014.008-.021.012z" fill="#111"/><path d="m1497.052 1118.6c-1.049-36.96-18.236-75.212-55.699-86.914.007.003.014.006.022.009.019-.001-549.14-168.497-549.154-168.502 64.636 25.619 2.488 178.792-61.464 151.571 170.556 87.075 341.084 174.164 511.643 261.228-.033-.016-.065-.028-.098-.043 72.947 32.737 137.247-49.746 150.813-115.784v.001c3.633-18.086 4.262-26.918 3.937-41.566zm-147.763 160.258c-.004-.002-.007-.003-.01-.004l.063.021c-.018-.006-.036-.011-.053-.017z" fill="#b0c3ff"/><path d="m1375.695 1284.415c-8.761 0-17.52-1.515-26.25-4.548-.135.019-.277.005-.419-.044-.005-.001-.011-.003-.018-.006-.029-.01-.074-.025-.085-.029v-.002c-.011-.004-.021-.009-.032-.014l-.001.003c-.035-.016-.074-.035-.107-.054-.08-.046-.152-.102-.214-.164-2.228-.8-4.454-1.698-6.677-2.696l-.022-.01c-.042-.021-.083-.044-.122-.069-101.068-51.591-202.132-103.195-303.19-154.796-69.417-35.444-138.835-70.89-208.256-106.332-.48-.245-.679-.826-.451-1.314s.803-.708 1.297-.496c14.133 6.017 29.256 3.34 43.733-7.738 28.179-21.562 47.832-69.714 42.914-105.149-2.55-18.381-11.521-31.118-25.943-36.834-.074-.029-.143-.067-.206-.111-.001 0-.002-.001-.004-.003-.372-.264-.526-.758-.345-1.196.2-.484.737-.728 1.229-.571.902.277 63.315 19.428 142.226 43.64l404.135 124.004c1.19.365 1.985.609 2.512.803.083.004.168.019.253.045 17.607 5.499 32.155 17.407 42.071 34.437 8.812 15.134 13.768 33.601 14.33 53.404v.006c.311 14.027-.17 22.934-3.957 41.785-8.109 39.474-36.581 92.062-79.931 114.257-12.753 6.525-25.612 9.792-38.47 9.792zm-32.848-9.317c23.382 10.449 47.07 9.689 70.406-2.258 42.763-21.894 70.867-73.858 78.882-112.876 3.748-18.658 4.225-27.47 3.917-41.34-1.451-51.129-29.305-77.921-54.918-85.959-.021-.005-.043-.012-.065-.019-1.504-.466-245.424-75.308-406.905-124.854-84.351-25.882-118.697-36.42-132.692-40.716 9.948 7.112 16.214 18.547 18.303 33.604 5.004 36.062-14.999 85.067-43.68 107.013-11.733 8.978-23.909 12.64-35.723 10.857 66.367 33.883 132.732 67.77 199.095 101.654 101.126 51.636 202.25 103.271 303.386 154.896z" fill="#111"/><path d="m892.253 863.202c-21.745-6.933-45.709 3.133-61.168 19.152-30.212 30.286-45.026 89.606-12.985 123.166 38.887 37.498 88.564-14.519 100.001-66.86 8.217-37.555-3.164-68.472-25.848-75.458zm-10.721 68.426c-6.293 28.767-27.487 52.493-47.338 52.996-19.851.502-30.841-22.411-24.548-51.177s27.487-52.493 47.337-52.995c19.852-.503 30.842 22.409 24.549 51.176z" fill="#b0c3ff"/><path d="m847.044 1019.274c-10.603 0-20.683-4.398-29.638-13.033-14.941-15.648-21.021-38.254-17.147-63.682 3.458-22.702 14.717-45.473 30.118-60.911 17.577-18.217 41.983-25.836 62.174-19.4 23.5 7.241 34.656 39.467 26.527 76.627-8.055 36.862-33.839 70.633-59.977 78.554-4.07 1.233-8.099 1.845-12.057 1.845zm30.658-157.282c-15.939 0-32.833 7.52-45.896 21.057-15.123 15.16-26.172 37.516-29.569 59.812-3.778 24.801 2.113 46.809 16.587 61.97 11.715 11.294 25.453 15 39.699 10.684 25.497-7.727 50.69-40.858 58.603-77.067 7.902-36.121-2.682-67.364-25.167-74.289-.003-.001-.006-.002-.009-.003-4.567-1.457-9.364-2.164-14.248-2.164zm-44.146 123.64c-7.232 0-13.535-3.011-18.262-8.734-8.008-9.696-10.484-26.02-6.624-43.665 6.375-29.143 28.038-53.269 48.289-53.781 7.516-.184 14.055 2.827 18.927 8.727 8.008 9.695 10.484 26.019 6.625 43.664-6.375 29.143-28.038 53.269-48.29 53.782-.223.004-.445.007-.665.007zm24.061-104.189c-.202 0-.404.002-.608.008-19.387.49-40.195 23.911-46.385 52.209-3.73 17.05-1.408 32.737 6.212 41.963 4.467 5.408 10.488 8.213 17.333 8.001 19.387-.491 40.196-23.912 46.386-52.21 3.73-17.05 1.408-32.737-6.212-41.963-4.334-5.247-10.108-8.008-16.726-8.008z" fill="#111"/><ellipse cx="845.589" cy="932.537" fill="#fff" rx="54.475" ry="34.177" transform="matrix(.3755 -.9268 .9268 .3755 -336.207 1366.1318)"/><path d="m833.554 985.632c-7.231 0-13.533-3.01-18.261-8.734-8.008-9.695-10.484-26.019-6.625-43.665 6.376-29.143 28.039-53.269 48.29-53.781 7.516-.184 14.055 2.827 18.926 8.727 8.008 9.695 10.484 26.019 6.624 43.664-6.375 29.143-28.038 53.269-48.289 53.782-.221.004-.444.007-.665.007zm24.063-104.189c-.202 0-.405.002-.608.008-19.387.49-40.195 23.911-46.386 52.209-3.73 17.051-1.408 32.738 6.212 41.964 4.466 5.408 10.467 8.205 17.333 8 19.387-.491 40.195-23.912 46.386-52.21 3.73-17.05 1.408-32.737-6.212-41.963-4.333-5.248-10.106-8.008-16.725-8.008z" fill="#111"/><path d="m1780.573 1192.611c.629-47.358-20.332-110.958-69.726-134.638-.432-.217-.866-.429-1.301-.636-.298-.138-.596-.275-.896-.409-1.498-.685-3.01-1.332-4.548-1.904-.017-.007-.033-.015-.05-.021.003.002.006.004.01.004-.004-.001-.007-.003-.01-.004.001-.001-249.979-101.266-249.979-101.266 54.843 22.216 80.787 106.266 60.888 195.21-26.987 120.625-125.944 230.546-222.119 202.37l249.98 101.266c.002.001.003.002.005.002-.001 0-.002-.001-.003-.001s-.002 0-.002-.001c0 0 .001.001.001.001 39.047 17.179 90.235 2.342 120.391-19.997 72.552-46.995 121.226-161.374 117.359-239.976z" fill="#b0c3ff"/><path d="m1580.754 1461.023c-13.34 0-26.436-2.289-38.334-7.524-.001 0-.002-.001-.002-.001l-249.952-101.254c-.494-.2-.744-.752-.569-1.256.175-.503.713-.779 1.226-.631 31.276 9.165 64.986 3.872 97.491-15.297 57.163-33.713 105.589-106.852 123.37-186.332 19.839-88.675-6.079-172.104-60.288-194.064-.512-.207-.759-.79-.551-1.302.208-.513.79-.759 1.302-.552l239.238 96.915c6.532 2.646 9.236 3.741 10.387 4.277.104.002.209.021.312.057.004.002.009.004.014.006.021.007.041.015.06.023.008.003.015.006.02.008 1.375.511 2.885 1.143 4.587 1.922.271.121.55.249.829.378.521.246.961.462 1.401.682 49.195 23.585 70.917 86.772 70.278 135.515 1.918 39.126-9.058 87.338-30.117 132.283-22.447 47.908-53.593 86.459-87.699 108.551-21.42 15.869-52.823 27.594-83.003 27.596zm-37.501-9.342c38.118 16.751 88.896 2.673 119.365-19.896 33.848-21.927 64.736-60.183 87.027-107.757 20.93-44.67 31.839-92.552 29.929-131.368-.001-.021-.001-.041-.001-.062.639-48.13-20.73-110.506-69.158-133.723-.442-.221-.868-.431-1.297-.633-.333-.154-.603-.278-.875-.4-1.666-.762-3.131-1.376-4.489-1.88v-.002c-.019-.006-.037-.013-.055-.02-.471-.191-178.058-72.131-233.611-94.635 44.281 30.749 63.895 107.197 45.848 187.861-17.896 79.993-66.69 153.638-124.307 187.617-28.744 16.952-58.454 23.201-86.666 18.366l238.215 96.499c.026.01.051.021.075.033z" fill="#111"/><path d="m1454.072 953.737c-28.098-11.236-57.685-9.335-85.81 1.479-58.59 23.472-100.346 77.853-125.013 132.44v.001c-14.751 33.661-23.753 67.026-26.479 104.357-2.706 49.355 5.485 100.78 42.454 137.166 18.354 17.921 42.733 29.325 69.374 28.405 147.352-.342 280.181-327.838 125.474-403.848zm21.418 187.335c-21.474 98.165-93.797 179.13-161.536 180.844s-105.244-76.475-83.769-174.639c21.474-98.165 93.797-179.131 161.536-180.845 67.739-1.713 105.244 76.476 83.769 174.64z" fill="#3658c1"/><path d="m1325.585 1358.637c-24.288 0-48.004-10.134-67.061-28.741-31.679-31.18-46.062-77.587-42.753-137.937 2.637-36.103 11.077-69.367 26.562-104.703 13.288-29.404 30.56-56.426 49.956-78.153 22.616-25.336 48.052-43.778 75.602-54.815 30.107-11.575 60.032-12.085 86.553-1.479.024.01.047.02.07.031 31.875 15.66 53.168 42.341 63.292 79.301 8.953 32.686 8.519 72.308-1.254 114.584-12.216 52.844-38.256 105.819-71.443 145.345-35.938 42.803-77.315 66.425-116.507 66.516-1.008.034-2.013.051-3.017.051zm88.877-411.422c-14.926 0-30.354 2.98-45.841 8.935-29.564 11.844-85.065 44.739-124.461 131.919-15.386 35.112-23.774 68.168-26.393 104.019-3.275 59.732 10.908 105.624 42.158 136.38 19.446 18.989 43.828 28.967 68.638 28.119 38.625-.091 79.459-23.459 115.013-65.803 32.991-39.291 58.879-91.963 71.026-144.509 9.698-41.954 10.139-81.238 1.274-113.605-9.961-36.37-30.892-62.618-62.21-78.018-12.416-4.961-25.601-7.437-39.204-7.437zm-102.686 375.728c-23.938 0-44.803-9.971-60.461-28.928-26.859-32.52-35.124-87.455-22.108-146.952 21.533-98.431 94.424-179.909 162.488-181.631 24.871-.631 46.529 9.365 62.664 28.9 26.859 32.521 35.125 87.455 22.108 146.952l-.977-.214.977.214c-21.533 98.43-94.424 179.908-162.488 181.631-.736.019-1.473.028-2.203.028zm82.115-355.538c-.713 0-1.427.009-2.145.027-67.199 1.699-139.237 82.473-160.584 180.059-12.886 58.901-4.775 113.2 21.696 145.251 15.729 19.044 36.849 28.789 61.071 28.174 67.199-1.7 139.237-82.474 160.584-180.059 12.886-58.901 4.775-113.2-21.696-145.251-15.264-18.479-35.603-28.201-58.926-28.201z" fill="#111"/><path d="m1448.936 975.853c-80.835-48.576-190.838-124.082-223.289-214.923 24.671 185.153-84.724 454.744-231.131 570.131 82.281-41.136 218.59-22.509 295.384-1.405 96.596 18.671 174.346-97.542 193.711-188.202 15.138-59.555 3.173-136.836-34.675-165.601z" fill="url(#e)"/><path d="m1310.546 1332.649c-6.941 0-13.89-.67-20.835-2.013-45.526-12.508-98.525-20.746-145.483-22.62-62.301-2.483-112.521 5.568-149.263 23.938-.458.229-1.017.075-1.292-.358-.275-.434-.178-1.004.225-1.321 69.667-54.906 135.06-149.124 179.412-258.494 44.366-109.403 63.081-222.656 51.347-310.72-.067-.507.258-.983.756-1.104.496-.123 1.005.153 1.177.636 14.34 40.143 45.703 81.49 93.215 122.894 33.838 29.486 76.246 59.419 129.646 91.508.031.019.061.039.09.062 17.959 13.649 31.307 39.17 37.584 71.862 5.893 30.688 4.966 65.234-2.544 94.781-10.396 48.676-35.864 99.352-68.117 135.52-18.091 20.287-37.555 35.281-57.852 44.564-15.814 7.233-31.912 10.865-48.066 10.865zm-187.864-27.072c7.041 0 14.246.147 21.625.441 47.104 1.879 100.267 10.143 145.859 22.673 95.484 18.451 173.149-96.998 192.468-187.446 7.449-29.31 8.367-63.539 2.527-93.949-6.18-32.182-19.242-57.256-36.787-70.614-53.479-32.14-95.966-62.132-129.883-91.687-44.782-39.023-75.312-78.043-90.867-116.11 9.637 87.178-9.312 197.247-52.46 303.648-43.105 106.295-106.058 198.341-173.556 254.09 31.684-13.989 72.301-21.046 121.074-21.046z" fill="#111"/><path d="m1253.028 753.517c-4.19-89.309-27.178-181.402-84.135-252.005-88.873-115.633-248.757-112.553-364.092-39.381-309.256 189.818-463.181 729.873-220.818 959.271 26.411 23.696 66.323 44.185 102.289 51.825 87.245 20.915 185.23-13.387 254.757-62.818 0 0 0-.002.001-.002 130.587-91.426 220.786-234.178 271.042-384.519 0 0 0 0 0-.001h.001c8.88-28.059 17.39-56.476 23.33-85.055v.002c.03-.135.06-.276.09-.41 13.365-63.811 20.111-122.029 17.535-186.907zm-59.103 181.983c0 .001 0 .001 0 0-.027.124-.055.254-.082.378 0-.001 0-.001 0-.002-5.379 26.277-13.085 52.406-21.126 78.206-45.508 138.236-127.183 269.494-245.428 353.558 0 0-.001.002-.001.002-62.956 45.451-151.681 76.99-230.681 57.76-32.568-7.025-68.707-25.864-92.622-47.652-219.459-210.926-80.08-707.496 199.949-882.03 104.435-67.281 249.21-70.112 329.684 36.21 51.575 64.918 72.39 149.595 76.184 231.714 2.333 59.654-3.775 113.184-15.877 171.856z" fill="#fff"/><path d="m740.982 1480.53c-18.985 0-37.332-2.109-54.942-6.331-35.572-7.555-75.903-27.988-102.724-52.053-91.725-86.817-132.867-224.576-115.866-387.916 5.743-55.175 18.004-111.472 36.444-167.329 18.369-55.642 42.41-109.468 71.456-159.984 61.113-106.283 140.275-191.224 228.928-245.639 59.19-37.552 127.583-55.75 192.562-51.257 71.171 4.931 130.941 36.357 172.847 90.881 26.875 33.314 47.746 73.459 62.018 119.3 12.557 40.335 20.067 85.173 22.324 133.269v.007c2.385 60.08-3.03 117.8-17.556 187.151l-.09.412c0 .002-.001.005-.002.008-6.042 29.063-14.795 58.097-23.353 85.14-26.248 78.519-61.75 150.721-105.527 214.617-47.409 69.199-103.213 126.528-165.862 170.396-.009.008-.019.015-.029.022-36.957 26.274-78.815 46.31-121.048 57.938-27.518 7.575-54.123 11.368-79.58 11.368zm236.298-1069.181c-58.615 0-118.97 18.018-171.943 51.626-88.382 54.248-167.306 138.943-228.252 244.939-28.979 50.399-52.965 104.101-71.291 159.614-18.395 55.721-30.626 111.877-36.354 166.909-16.935 162.708 23.988 299.876 115.232 386.238 26.559 23.829 66.529 44.08 101.809 51.572 40.918 9.81 85.843 8.12 133.549-5.015 42-11.563 83.631-31.488 120.394-57.62.011-.009.022-.017.034-.025 62.465-43.733 118.112-100.9 165.393-169.912 43.671-63.743 79.091-135.779 105.274-214.105 8.537-26.975 17.273-55.947 23.298-84.929.001-.008.003-.016.005-.023l.09-.412c14.489-69.172 19.891-126.74 17.512-186.648-2.249-47.923-9.73-92.591-22.235-132.761-14.196-45.6-34.948-85.521-61.679-118.657-41.561-54.075-100.83-85.232-171.414-90.122-6.443-.447-12.925-.669-19.422-.669zm-231.133 1020.849c-17.201 0-33.819-1.94-49.775-5.824-32.224-6.95-68.762-25.748-93.059-47.885-83.348-80.107-120.561-207.262-104.805-358.059 10.547-100.939 45.321-207.577 97.916-300.269 55.298-97.456 126.872-175.36 206.983-225.291 53.614-34.539 115.571-51.286 174.426-47.145 64.476 4.535 118.622 33.444 156.584 83.6 24.341 30.638 43.243 67.558 56.168 109.718 11.372 37.092 18.174 78.324 20.217 122.554 2.16 55.254-2.744 108.331-15.898 172.104-.001.003-.001.006-.002.01l-.082.378c-5.47 26.722-13.397 53.421-21.149 78.29-23.769 72.203-55.919 138.598-95.562 197.355-42.934 63.635-93.469 116.354-150.206 156.696-.01.007-.02.015-.029.021-33.474 24.166-71.386 42.593-109.64 53.288-24.923 6.97-49.027 10.458-72.087 10.459zm213.966-983.091c-53.055 0-107.687 16.562-155.637 47.453-79.842 49.763-151.18 127.422-206.314 224.589-52.462 92.457-87.147 198.817-97.666 299.489-15.691 150.17 21.309 276.738 104.182 356.391 24.036 21.897 60.211 40.509 92.14 47.396 37.037 9.016 77.697 7.463 120.877-4.609 38.02-10.63 75.706-28.945 108.984-52.967.01-.008.021-.016.031-.022v-.001c56.554-40.205 106.934-92.762 149.741-156.209 39.541-58.604 71.61-124.834 95.316-196.847 7.731-24.805 15.642-51.446 21.096-78.094l.082-.378c13.12-63.608 18.011-116.536 15.859-171.615-2.036-44.055-8.809-85.121-20.131-122.053-12.852-41.919-31.638-78.618-55.837-109.078-37.618-49.7-91.261-78.336-155.144-82.83-5.832-.411-11.697-.615-17.579-.615zm233.811 486.394h.01z" fill="#111"/><g enable-background="new"><g fill="#111"><path d="m1354.864 1405.439-8.641 7.244 11.848-34.818 10.646-13.136z"/><path d="m1346.223 1413.682c-.197 0-.394-.058-.565-.175-.37-.254-.526-.723-.382-1.147l11.848-34.818c.038-.111.096-.216.17-.308l10.646-13.136c.305-.377.835-.482 1.26-.245.424.233.619.738.463 1.197l-13.853 40.71c-.059.173-.164.326-.304.444l-8.641 7.244c-.184.156-.413.234-.642.234zm12.738-35.327-10.638 31.263 5.686-4.767 11.957-35.139zm-4.097 27.083h.01z"/><path d="m1318.95 1511.294-6.088-.662-15.205-42.965 7.653 5.087z"/><path d="m1318.95 1512.295c-.036 0-.072-.002-.108-.006l-6.088-.662c-.382-.042-.707-.298-.835-.66l-15.206-42.965c-.144-.406-.011-.858.328-1.123.339-.264.809-.281 1.168-.044l7.653 5.086c.18.12.317.295.389.499l13.64 38.541c.115.324.055.685-.159.954-.188.241-.478.38-.782.38zm-5.355-2.588 3.881.422-12.998-36.727-4.879-3.243z"/><path d="m1305.31 1472.754-7.654-5.087c-2.296-6.375-.595-14.15 3.867-17.898l10.665-8.924c-7.927 6.662-10.97 20.551-6.878 31.909"/><path d="m1305.31 1473.754c-.192 0-.385-.056-.554-.167l-7.653-5.086c-.179-.119-.314-.292-.387-.494-2.444-6.786-.654-14.956 4.165-19.003l10.665-8.924.001-.001c.423-.354 1.053-.298 1.408.124.355.423.3 1.053-.123 1.408-7.61 6.395-10.5 19.925-6.581 30.804.146.405.016.859-.324 1.126-.18.141-.399.213-.617.213zm-6.82-6.733 5.037 3.347c-2.025-7.782-1.086-16.25 2.264-22.865l-3.626 3.033c-4.067 3.417-5.652 10.602-3.675 16.485z"/></g><path d="m1418.678 1406.568-63.814-1.129 13.853-40.71 63.814 1.129z" fill="#3658c1"/><path d="m1418.678 1407.568c-.006 0-.012 0-.018 0l-63.814-1.13c-.319-.006-.617-.164-.801-.425-.184-.262-.231-.595-.128-.897l13.853-40.71c.14-.411.53-.643.964-.678l63.814 1.13c.319.006.617.164.801.425.184.262.231.595.128.897l-13.853 40.71c-.137.406-.518.678-.946.678zm-62.425-3.105 61.714 1.093 13.176-38.722-61.714-1.093z" fill="#111"/><path d="m1439.309 1414.33-20.631-7.762 13.853-40.71 18.626 13.654z" fill="#fff"/><path d="m1439.309 1415.33c-.119 0-.238-.021-.352-.064l-20.631-7.762c-.505-.189-.769-.746-.595-1.258l13.853-40.71c.103-.302.343-.536.646-.632.303-.094.634-.04.892.147l18.626 13.653c.352.259.496.715.355 1.129l-11.848 34.818c-.087.256-.275.466-.52.582-.133.065-.279.097-.426.097zm-19.372-9.356 18.758 7.057 11.279-33.146-16.936-12.414z" fill="#111"/><path d="m1248.867 1736.438-8.587 7.368 72.582-233.174 6.088.662z" fill="#111"/><path d="m1240.279 1744.807c-.191 0-.382-.055-.549-.164-.373-.245-.538-.707-.405-1.133l72.583-233.174c.142-.457.583-.753 1.062-.697l6.088.662c.297.032.564.196.729.446.164.249.207.56.118.845l-70.083 225.144c-.056.18-.161.34-.303.462l-8.587 7.368c-.188.159-.42.241-.653.241zm73.293-233.091-71.304 229.066 5.729-4.915 69.637-223.71zm-64.705 224.722h.01z" fill="#111"/><path d="m1376.003 1441.975-63.814-1.129 42.675-35.407 63.814 1.129z" fill="#3658c1"/><path d="m1376.003 1442.975c-.006 0-.012 0-.018 0l-63.814-1.13c-.418-.008-.788-.274-.926-.669-.139-.395-.017-.834.305-1.101l42.675-35.407c.185-.152.428-.216.656-.23l63.814 1.13c.418.008.788.274.926.669.139.395.017.834-.305 1.101l-42.675 35.407c-.179.149-.405.23-.638.23zm-61.1-3.082 60.747 1.075 40.314-33.448-60.747-1.075z" fill="#111"/><path d="m1382.764 1512.424-63.814-1.13-13.64-38.54 63.814 1.129z" fill="#3658c1"/><path d="m1382.764 1513.424c-.006 0-.012 0-.018 0l-63.814-1.129c-.417-.008-.786-.273-.925-.666l-13.64-38.541c-.109-.31-.06-.652.131-.918.191-.267.504-.406.829-.416l63.814 1.13c.417.008.786.273.925.666l13.64 38.54c.109.31.06.652-.131.918-.187.261-.489.416-.811.416zm-63.102-3.117 61.679 1.091-12.928-36.527-61.679-1.092z" fill="#111"/><path d="m1369.124 1473.883-63.814-1.129c-4.092-11.358-1.049-25.247 6.879-31.908l63.814 1.129c-7.928 6.662-10.971 20.551-6.879 31.908" fill="#3658c1"/><path d="m1369.124 1474.884c-.006 0-.012 0-.018 0l-63.814-1.13c-.415-.008-.783-.271-.923-.661-4.254-11.809-1.169-26.001 7.177-33.013.185-.155.411-.233.661-.234l63.814 1.13c.417.008.786.272.925.666.14.394.02.831-.299 1.1-7.61 6.395-10.5 19.925-6.581 30.804.111.31.063.653-.128.921-.189.261-.492.417-.814.417zm-63.098-3.118 61.701 1.093c-3.274-10.607-.853-22.798 5.818-29.927l-60.994-1.08c-7.251 6.358-10.058 19.288-6.525 29.914z" fill="#111"/><path d="m1394.61 1451.417-18.607-9.442 42.675-35.407 20.631 7.762z" fill="#fff"/><path d="m1394.609 1452.417c-.154 0-.31-.035-.453-.108l-18.606-9.441c-.3-.152-.504-.445-.541-.78-.038-.335.096-.666.355-.881l42.675-35.407c.277-.229.656-.292.991-.166l20.631 7.762c.333.125.575.419.634.77.059.352-.074.708-.348.936l-44.7 37.087c-.182.15-.409.228-.638.228zm-16.795-10.645 16.663 8.456 42.87-35.568-18.476-6.951z" fill="#111"/><path d="m1405.948 1512.28-23.184.144-13.64-38.541 21.619-4.568z" fill="#fff"/><path d="m1382.764 1513.424c-.423 0-.801-.267-.943-.666l-13.64-38.54c-.096-.272-.07-.572.071-.823s.383-.43.666-.489l21.619-4.568c.489-.106.981.173 1.149.645l15.206 42.965c.108.306.062.644-.125.908-.186.266-.489.424-.812.426l-23.184.144c-.003-.002-.005-.002-.007-.002zm-12.316-38.798 13.021 36.794 21.067-.131-14.444-40.814z" fill="#111"/><path d="m1394.61 1451.416-18.607-9.442c-4.277 3.594-7.132 9.291-8.212 15.56-.922 5.35-.551 11.118 1.334 16.349l21.619-4.568c-1.057-2.936-1.267-6.169-.75-9.168.605-3.514 2.208-6.709 4.616-8.731z" fill="#fff"/><path d="m1369.124 1474.884c-.414 0-.795-.258-.94-.661-1.868-5.187-2.357-11.173-1.378-16.857 1.165-6.761 4.203-12.498 8.554-16.156.307-.258.74-.31 1.096-.126l18.607 9.442c.299.151.502.444.541.777.038.334-.093.664-.351.88-2.134 1.792-3.692 4.757-4.274 8.135-.504 2.921-.253 5.996.705 8.659.098.272.073.573-.067.826-.141.252-.384.432-.667.491l-21.619 4.568c-.07.015-.139.022-.207.022zm7.028-31.712c-3.679 3.337-6.353 8.591-7.376 14.533-.87 5.05-.511 10.346 1.007 15.018l19.667-4.156c-.778-2.715-.938-5.722-.443-8.589.572-3.316 1.935-6.212 3.889-8.309z" fill="#111"/><path d="m1273.314 1916.013-10.38-9.328c-21.02-18.752-36.545-68.004-56.224-106.609-6.037-11.87-3.172-28.114 5.503-35.376l10.649-8.937c-12.456 10.454-16.562 33.737-7.881 50.843 19.369 38.001 35.194 88.548 58.333 109.407" fill="#111"/><path d="m1273.313 1917.014c-.238 0-.477-.085-.668-.256l-10.38-9.328c-14.48-12.919-26.2-39.734-38.607-68.124-5.693-13.026-11.58-26.496-17.839-38.775-6.146-12.084-3.511-28.843 5.752-36.597l10.648-8.937c.423-.354 1.054-.301 1.409.123.355.423.3 1.054-.123 1.408l-.005.004c-12.471 10.473-15.964 33.194-7.628 49.621 5.977 11.727 11.696 24.825 17.227 37.493 12.306 28.185 25.031 57.33 40.883 71.623.001.001.001.001.001.001.41.37.443 1.002.074 1.412-.198.22-.47.332-.744.332zm-58.125-153.504-2.332 1.956c-8.455 7.077-10.91 23.038-5.255 34.157 6.286 12.331 12.185 25.828 17.89 38.882 11.76 26.907 22.898 52.392 36.202 65.635-11.26-15.794-20.966-38.024-30.427-59.693-5.519-12.641-11.226-25.712-17.176-37.387-6.886-13.568-6.022-31.269 1.098-43.55z" fill="#111"/><path d="m1312.681 1737.568-63.814-1.13 70.083-225.144 63.814 1.13z" fill="#3658c1"/><path d="m1312.681 1738.567c-.006 0-.012 0-.018 0l-63.814-1.129c-.315-.006-.608-.159-.793-.414-.185-.256-.238-.583-.144-.883l70.083-225.144c.132-.424.519-.695.972-.703l63.814 1.129c.315.006.608.159.793.414.185.256.238.583.144.883l-70.083 225.144c-.13.419-.517.703-.954.703zm-62.463-3.105 61.731 1.093 69.464-223.154-61.731-1.093z" fill="#111"/><path d="m1333.366 1745.454-20.685-7.886 70.083-225.144 23.184-.144z" fill="#fff"/><path d="m1333.366 1746.454c-.121 0-.241-.021-.356-.065l-20.685-7.887c-.493-.188-.755-.728-.598-1.231l70.083-225.144c.129-.416.513-.7.948-.703l23.184-.144h.006c.317 0 .615.15.804.404.19.257.246.588.151.893l-72.583 233.174c-.082.264-.269.481-.518.603-.137.066-.286.1-.436.1zm-19.451-9.486 18.813 7.173 71.859-230.852-21.085.13z" fill="#111"/><path d="m1291.259 1753.843-63.814-1.129 21.422-16.276 63.814 1.13z" fill="#3658c1"/><path d="m1291.259 1754.844c-.006 0-.012 0-.018 0l-63.814-1.13c-.426-.008-.8-.284-.933-.689-.132-.404.006-.849.346-1.106l21.421-16.275c.179-.137.395-.211.623-.204l63.814 1.129c.426.008.8.284.933.689.132.404-.006.849-.346 1.106l-21.421 16.276c-.174.132-.386.204-.605.204zm-60.912-3.079 60.583 1.073 18.849-14.321-60.583-1.072z" fill="#111"/><path d="m1308.491 1764.233-17.232-10.39 21.422-16.275 20.685 7.886z" fill="#fff"/><path d="m1308.491 1765.233c-.178 0-.357-.048-.516-.144l-17.232-10.39c-.284-.171-.465-.472-.482-.803s.129-.649.394-.85l21.421-16.276c.275-.21.638-.261.961-.139l20.685 7.887c.34.13.583.434.634.794s-.097.72-.388.938l-24.875 18.779c-.177.136-.389.204-.602.204zm-15.453-11.485 15.391 9.279 22.893-17.282-18.478-7.046z" fill="#111"/><path d="m1367.504 1929.099-63.814-1.129c-6.759-.12-13.482-1.732-19.606-4.731-4.608-1.497-7.43-4.254-10.77-7.225-23.138-20.859-38.964-71.406-58.333-109.408-9.671-19.057-3.471-45.783 12.464-53.892l63.814 1.129c-15.935 8.109-22.136 34.835-12.464 53.892 19.369 38.001 35.195 88.549 58.333 109.408 3.34 2.972 6.162 5.728 10.77 7.225 6.124 2.999 12.847 4.611 19.606 4.731" fill="#3658c1"/><path d="m1367.505 1930.099c-.006 0-.012 0-.018 0l-63.814-1.13c-6.871-.121-13.772-1.781-19.965-4.802-4.401-1.446-7.25-3.998-10.265-6.698l-.793-.709c-16.179-14.585-28.992-43.933-41.383-72.314-5.519-12.641-11.226-25.712-17.176-37.387-9.907-19.522-3.516-46.882 12.902-55.237.146-.074.314-.1.471-.108l63.814 1.13c.459.008.854.328.957.775s-.112.907-.521 1.116c-15.521 7.896-21.477 33.925-12.026 52.548 5.977 11.726 11.696 24.824 17.226 37.492 12.306 28.187 25.032 57.333 40.884 71.624l.793.709c2.994 2.682 5.579 4.997 9.616 6.309.045.015.088.032.131.053 5.945 2.912 12.579 4.513 19.184 4.63.552.01.992.466.982 1.018-.01.545-.456.981-.999.981zm-139.825-176.381c-15.357 8.03-21.213 33.901-11.808 52.436 5.977 11.727 11.696 24.825 17.227 37.493 12.306 28.187 25.032 57.333 40.884 71.624l.793.709c2.994 2.682 5.579 4.997 9.616 6.309.044.015.088.032.13.053 5.948 2.912 12.582 4.513 19.185 4.629l50.219.89c-2.196-.698-4.341-1.555-6.406-2.562-4.401-1.446-7.25-3.998-10.265-6.698l-.793-.709c-16.179-14.585-28.992-43.933-41.383-72.314-5.519-12.641-11.225-25.711-17.176-37.386-9.274-18.274-4.269-43.414 9.875-53.407z" fill="#111"/><path d="m1407.076 1910.414-10.203 8.279c-14.063 11.972-33.445 13.28-48.976 5.676-4.608-1.497-7.43-4.254-10.77-7.225-23.138-20.859-38.964-71.406-58.333-109.408-4.418-8.705-5.524-19.01-3.903-28.41l22.196 2.638c-1.131 6.546-.365 13.72 2.708 19.76 19.679 38.605 35.203 87.856 56.224 106.609 2.808 2.499 5.901 4.547 9.17 6.141 13.601 6.633 30.231 5.398 41.887-4.06" fill="#fff"/><path d="m1368.261 1930.117c-7.009 0-14.109-1.585-20.741-4.82-4.4-1.446-7.249-3.998-10.265-6.698l-.793-.709c-16.179-14.585-28.992-43.933-41.383-72.314-5.519-12.641-11.226-25.711-17.176-37.386-4.334-8.54-5.753-18.851-3.998-29.034.09-.523.57-.882 1.104-.823l22.196 2.639c.272.032.52.176.684.396s.23.498.184.768c-1.147 6.64-.195 13.614 2.614 19.137 6.286 12.33 12.185 25.827 17.889 38.88 12.317 28.185 23.952 54.807 38.109 67.437 2.686 2.389 5.695 4.403 8.943 5.988 13.634 6.649 29.641 5.111 40.789-3.915l.028-.022c.429-.348 1.059-.282 1.406.146.348.429.283 1.059-.146 1.406-.007.006-.015.013-.022.019l-10.181 8.26c-8.247 7.019-18.641 10.645-29.241 10.645zm-92.536-149.685c-1.441 9.455-.046 18.955 3.961 26.852 5.977 11.727 11.696 24.824 17.226 37.492 12.306 28.187 25.032 57.333 40.884 71.624l.793.709c2.994 2.682 5.579 4.997 9.616 6.309.045.015.088.032.131.053 15.959 7.814 34.756 5.642 47.887-5.539l.881-.715c-10.161 3.765-21.924 3.245-32.354-1.844-3.412-1.664-6.573-3.781-9.396-6.292-14.484-12.922-26.204-39.738-38.612-68.129-5.692-13.025-11.579-26.495-17.838-38.773-2.897-5.695-3.938-12.526-2.966-19.344z" fill="#111"/><path d="m1297.088 1781.963-22.196-2.638c1.927-11.178 7.711-21.077 16.367-25.482l17.232 10.39c-6.028 3.049-10.058 9.946-11.403 17.73" fill="#fff"/><path d="m1297.089 1782.964c-.039 0-.079-.002-.119-.007l-22.196-2.639c-.272-.032-.52-.176-.684-.396s-.23-.497-.184-.768c2.083-12.083 8.401-21.879 16.899-26.203.308-.155.674-.144.97.035l17.232 10.39c.312.188.497.53.483.894-.014.363-.224.691-.548.855-5.441 2.752-9.504 9.11-10.869 17.008-.083.485-.504.831-.984.831zm-21.021-4.506 20.209 2.402c1.482-7.362 5.222-13.415 10.243-16.647l-15.295-9.222c-7.455 4.036-13.055 12.716-15.157 23.467z" fill="#111"/><path d="m1557.381 1431.321-138.921 463.005c-8.685 23.158-34.014 29.54-53.27 20.148-3.269-1.594-6.362-3.642-9.17-6.141-21.02-18.752-36.545-68.004-56.224-106.609-6.726-13.224-2.402-31.878 8.695-37.491l24.875-18.779 72.583-233.174-15.206-42.965c-2.296-6.375-.595-14.15 3.867-17.898l44.7-37.087 11.848-34.818z" fill="#b0c3ff"/><path d="m1383.209 1919.662c-6.281 0-12.609-1.438-18.457-4.29-3.412-1.664-6.573-3.781-9.396-6.292-14.484-12.922-26.204-39.738-38.612-68.129-5.692-13.025-11.579-26.495-17.838-38.773-3.75-7.373-4.365-16.742-1.645-25.062 2.091-6.396 5.888-11.269 10.699-13.733l24.547-18.533 72.388-232.549-15.095-42.651c-2.441-6.781-.651-14.951 4.167-18.998l44.487-36.91 11.757-34.552c.093-.271.297-.49.562-.601s.565-.102.823.024l106.224 51.81c.44.215.66.717.52 1.186l-138.921 463.005c-3.905 10.419-11.489 18.291-21.375 22.229-4.731 1.883-9.768 2.819-14.835 2.819zm68.529-538.754-11.482 33.744c-.06.175-.166.329-.308.447l-44.7 37.087c-4.135 3.474-5.703 10.851-3.564 16.79l15.208 42.97c.072.204.076.425.012.631l-72.583 233.174c-.062.2-.185.375-.352.501l-24.875 18.779c-.047.036-.098.067-.151.095-4.371 2.21-7.845 6.689-9.781 12.611-2.559 7.826-1.988 16.623 1.526 23.533 6.286 12.33 12.185 25.827 17.889 38.88 12.317 28.185 23.952 54.807 38.109 67.437 2.686 2.389 5.695 4.403 8.943 5.988 10.061 4.906 21.606 5.421 31.674 1.409 6.619-2.637 15.5-8.422 20.221-21.01l138.655-462.127z" fill="#111"/></g><path d="m828.879 621.149-33.328 19.491-1.246 20.902 33.327-19.491c17.065-9.98 26.799-26.553 27.834-43.891l1.247-20.902c-1.035 17.338-10.77 33.91-27.834 43.891z" fill="#b0c3ff"/><path d="m794.305 662.543c-.182 0-.363-.05-.523-.147-.314-.193-.497-.544-.475-.912l1.246-20.902c.02-.333.205-.635.493-.804l33.328-19.491c16.071-9.399 26.292-25.507 27.341-43.087.033-.551.5-.968 1.058-.938.551.033.972.506.938 1.058v.006l-1.247 20.896c-1.089 18.25-11.679 34.959-28.327 44.695l-33.327 19.491c-.157.089-.331.135-.505.135zm2.212-21.309-1.103 18.501 31.712-18.547c16.071-9.398 26.292-25.506 27.341-43.088l.391-6.559c-4.342 12.473-13.284 23.341-25.475 30.471zm32.361-20.085h.01z" fill="#111"/><path d="m791.883 693.392c-2.828 1.654-6.534 2.044-9.98.504l-43.688-19.722-1.247 20.902 43.688 19.722c3.445 1.54 7.152 1.15 9.98-.504 2.634-1.54 4.506-4.177 4.697-7.371l1.247-20.903c-.191 3.195-2.063 5.832-4.697 7.372z" fill="#b0c3ff"/><path d="m785.175 716.763c-1.672 0-3.353-.349-4.927-1.052l-43.692-19.724c-.378-.17-.611-.557-.586-.971l1.247-20.902c.02-.328.199-.626.481-.796.282-.171.629-.191.929-.056l43.688 19.722c2.938 1.313 6.328 1.144 9.063-.456 2.51-1.467 4.042-3.86 4.204-6.567.033-.552.493-.958 1.058-.938.551.033.972.506.938 1.058l-1.247 20.902c-.202 3.387-2.094 6.366-5.19 8.175-1.824 1.066-3.888 1.605-5.966 1.605zm-47.168-22.315 43.061 19.438c2.939 1.313 6.328 1.144 9.063-.456 2.51-1.466 4.042-3.86 4.204-6.567l.893-14.967c-.777.913-1.731 1.711-2.839 2.358-3.29 1.924-7.363 2.13-10.893.554l-42.369-19.126z" fill="#111"/><path d="m581.139 766.038c-28.281 16.541-65.995 8.715-84.217-17.515l-105.693-152.134c-7.221-10.393-10.295-22.111-9.615-33.501l-1.247 20.902c-.68 11.39 2.394 23.109 9.615 33.502l105.694 152.133c18.222 26.229 55.936 34.055 84.218 17.515l157.075-91.865 1.247-20.902z" fill="#b0c3ff"/><path d="m547.568 796.585c-20.558 0-40.783-9.415-52.714-26.59l-105.693-152.133c-7.126-10.258-10.513-22.061-9.792-34.132l1.248-20.902c.033-.552.493-.978 1.058-.938.551.033.972.506.938 1.058-.694 11.619 2.57 22.985 9.438 32.871l105.693 152.135c17.895 25.76 55.081 33.486 82.891 17.222l157.075-91.866c.319-.186.714-.18 1.028.011.314.193.497.544.475.912l-1.247 20.902c-.02.333-.205.635-.493.804l-157.075 91.864c-10.166 5.946-21.549 8.781-32.83 8.782zm-165.815-219.235-.388 6.499c-.693 11.619 2.571 22.986 9.438 32.872l105.693 152.133c17.896 25.76 55.082 33.487 82.892 17.223l156.613-91.595 1.104-18.501-155.461 90.92-.505-.863.505.863c-28.69 16.78-67.065 8.792-85.543-17.808l-105.693-152.134c-4.225-6.081-7.136-12.706-8.655-19.609z" fill="#111"/><path d="m657.215 374.059c28.282-16.54 65.953-8.692 84.177 17.539l105.693 152.134c18.223 26.229 10.075 60.877-18.207 77.417l-33.328 19.491 1.043 44.664c.067 3.515-1.882 6.434-4.711 8.088-2.828 1.654-6.535 2.044-9.98.504l-43.689-19.722-157.073 91.864c-28.282 16.54-65.995 8.714-84.217-17.515l-105.694-152.134c-18.223-26.23-10.034-60.901 18.247-77.441z" fill="#fff"/><path d="m548.815 775.682c-20.559 0-40.782-9.415-52.713-26.589l-105.694-152.133c-8.808-12.678-11.875-27.738-8.639-42.407 3.359-15.222 13.02-28.174 27.202-36.468l247.739-144.89c28.667-16.768 67.024-8.767 85.503 17.832l105.693 152.134c8.816 12.689 11.888 27.756 8.651 42.425-3.354 15.203-13.005 28.14-27.174 36.427l-32.819 19.193 1.028 44.074c.071 3.675-1.875 7.028-5.205 8.975-3.291 1.924-7.363 2.13-10.893.554l-43.222-19.511-156.629 91.604c-10.163 5.945-21.548 8.78-32.828 8.78zm108.4-401.624.505.863-247.739 144.89c-13.695 8.01-23.021 20.501-26.259 35.173-3.116 14.118-.158 28.62 8.328 40.835l105.693 152.134c17.896 25.76 55.081 33.486 82.891 17.222l157.076-91.865c.28-.163.622-.182.917-.048l43.689 19.722c2.938 1.313 6.328 1.144 9.063-.456 2.696-1.576 4.272-4.27 4.215-7.205l-1.042-44.659c-.009-.363.181-.703.495-.887l33.328-19.491c13.682-8.002 22.998-20.479 26.231-35.131 3.115-14.118.153-28.627-8.341-40.854l-105.694-152.133c-17.897-25.761-55.064-33.497-82.851-17.246z" fill="#111"/><g enable-background="new" fill="#111"><path d="m528.466 601.921c-9.646 5.641-12.439 17.517-6.225 26.461 6.241 8.983 19.128 11.636 28.773 5.995 9.683-5.663 12.462-17.479 6.221-26.462-6.213-8.943-19.086-11.657-28.769-5.994"/><path d="m539.987 638.325c-7.238 0-14.362-3.319-18.567-9.372-3.112-4.479-4.193-9.812-3.045-15.014 1.189-5.387 4.594-9.961 9.586-12.881 10.087-5.9 23.589-3.079 30.096 6.287 3.125 4.498 4.215 9.833 3.07 15.023-1.185 5.37-4.597 9.941-9.608 12.872-3.57 2.089-7.568 3.085-11.532 3.085zm-.474-38.36c-3.623 0-7.277.911-10.542 2.82-4.506 2.635-7.576 6.749-8.643 11.585-1.027 4.652-.056 9.426 2.734 13.442 5.926 8.529 18.238 11.09 27.447 5.702 4.524-2.646 7.601-6.757 8.665-11.577 1.023-4.639.043-9.416-2.76-13.451-3.823-5.504-10.308-8.521-16.901-8.521zm-11.047 1.957h.01z"/><path d="m609.362 554.61c-9.643 5.64-12.436 17.516-6.223 26.46 6.241 8.983 19.128 11.636 28.771 5.996 9.685-5.664 12.464-17.48 6.224-26.463-6.214-8.944-19.087-11.658-28.772-5.993"/><path d="m620.885 591.013c-7.238 0-14.362-3.319-18.567-9.373-3.112-4.479-4.193-9.811-3.045-15.013 1.188-5.387 4.592-9.96 9.584-12.88 10.088-5.901 23.59-3.082 30.098 6.285 3.125 4.498 4.215 9.834 3.07 15.022-1.185 5.371-4.598 9.943-9.61 12.875-3.569 2.087-7.567 3.084-11.53 3.084zm-.473-38.361c-3.624 0-7.279.911-10.545 2.821-4.505 2.635-7.574 6.749-8.641 11.584-1.027 4.651-.056 9.426 2.734 13.441 5.926 8.53 18.238 11.089 27.445 5.704 4.525-2.646 7.604-6.759 8.667-11.579 1.024-4.639.043-9.416-2.76-13.451-3.824-5.503-10.308-8.52-16.9-8.52zm-11.05 1.958h.01z"/><path d="m690.26 507.297c-9.643 5.64-12.439 17.517-6.225 26.461 6.241 8.983 19.13 11.635 28.773 5.995 9.685-5.664 12.464-17.48 6.224-26.463-6.214-8.944-19.087-11.658-28.772-5.993"/><path d="m701.781 543.7c-7.238 0-14.362-3.319-18.567-9.372-3.111-4.479-4.192-9.81-3.044-15.013 1.189-5.388 4.593-9.962 9.586-12.882 10.089-5.899 23.591-3.08 30.098 6.286 3.125 4.498 4.215 9.833 3.07 15.022-1.186 5.371-4.599 9.943-9.61 12.874-3.571 2.089-7.569 3.085-11.533 3.085zm-11.016-35.54c-4.506 2.635-7.575 6.75-8.643 11.586-1.027 4.652-.056 9.426 2.734 13.441 5.927 8.53 18.241 11.089 27.447 5.702 4.525-2.646 7.604-6.758 8.667-11.578 1.024-4.639.043-9.416-2.76-13.451-5.925-8.529-18.237-11.087-27.445-5.7zm-.505-.863h.01z"/></g><path d="m1843.17 2080.846-20.013 27.724c-4.166 5.77-9.563 10.793-16.221 14.886-43.651 26.836-124.95 3.558-181.547-51.939-48.005-47.072-62.881-102.19-39.741-134.245l20.013-27.724c-23.14 32.056-8.264 87.173 39.741 134.246 56.597 55.497 137.896 78.775 181.547 51.939 6.659-4.094 12.056-9.117 16.221-14.887" fill="url(#f)"/><path d="m1762.553 2135.549c-43.339 0-97.076-23.322-137.863-63.318-47.471-46.549-63.859-102.287-39.852-135.544l20.013-27.724c.324-.448.948-.548 1.396-.226.448.323.549.948.226 1.396-23.415 32.437-7.118 87.106 39.63 132.946 56.22 55.128 137.112 78.364 180.323 51.802 6.419-3.947 11.78-8.866 15.934-14.62.324-.448.948-.549 1.396-.226s.549.948.226 1.396l-20.013 27.724c-4.309 5.97-9.863 11.068-16.508 15.153-12.409 7.627-27.857 11.241-44.908 11.241zm-164.698-213.478-11.395 15.785c-23.415 32.437-7.119 87.105 39.63 132.946 56.219 55.128 137.112 78.363 180.323 51.802 6.419-3.947 11.78-8.866 15.934-14.62l11.441-15.85c-1.979 1.594-4.085 3.078-6.315 4.449-43.946 27.014-125.936 3.654-182.771-52.077-41.685-40.874-59.403-88.831-46.847-122.435z" fill="#111"/><path d="m1621.89 1894.656c43.651-26.836 124.924-3.584 181.573 51.965 56.596 55.497 67.137 122.276 23.486 149.112s-124.95 3.558-181.547-51.939c-56.649-55.55-67.163-122.303-23.512-149.138z" fill="#3658c1"/><path d="m1782.566 2107.825c-43.339.003-97.076-23.322-137.864-63.318-35.194-34.511-53.995-74.735-50.292-107.603 2.101-18.646 11.422-33.551 26.956-43.101l.524.852-.524-.852c43.945-27.021 125.947-3.645 182.797 52.103 35.174 34.492 53.963 74.709 50.259 107.58-2.101 18.647-11.42 33.551-26.949 43.098-12.407 7.629-27.856 11.24-44.907 11.241zm-116.212-223.309c-16.703 0-31.803 3.53-43.94 10.991-14.991 9.216-23.987 23.608-26.017 41.621-3.634 32.26 14.947 71.868 49.706 105.951 40.425 39.641 93.617 62.792 136.374 62.796 16.706.001 31.81-3.531 43.949-10.994 14.986-9.214 23.98-23.604 26.01-41.618 3.635-32.265-14.934-71.864-49.672-105.929-40.441-39.653-93.648-62.818-136.41-62.818z" fill="#111"/><path d="m1788.834 1955.584c-46.136-45.239-112.379-64.191-147.967-42.313-35.566 21.866-26.997 76.274 19.139 121.513 46.163 45.267 112.407 64.219 147.973 42.353 35.588-21.878 27.018-76.287-19.145-121.553z" fill="#fff"/><path d="m1771.828 2087.171c-35.377 0-79.236-19.033-112.522-51.672-28.705-28.148-44.038-60.978-41.013-87.819 1.719-15.255 9.344-27.448 22.051-35.26 35.891-22.065 102.817-3.022 149.191 42.45 28.719 28.161 44.059 60.999 41.035 87.842-1.719 15.261-9.35 27.46-22.066 35.277-10.136 6.231-22.749 9.182-36.676 9.182zm-94.689-181.99c-13.587 0-25.875 2.873-35.748 8.942-12.164 7.479-19.464 19.159-21.111 33.781-2.956 26.234 12.157 58.446 40.426 86.167 45.774 44.884 111.606 63.821 146.749 42.215 12.173-7.484 19.479-19.171 21.126-33.799 2.956-26.235-12.165-58.456-40.447-86.189-32.908-32.269-76.2-51.117-110.995-51.117z" fill="#111"/><path d="m1664.147 1926.858-9.25 5.687 15.325 15.027c-5.487 4.924-7.727 10.872-6.679 17.817 1.052 7.115 5.399 14.401 12.995 21.849 7.459 7.314 15.56 12.167 24.272 14.528 8.762 2.375 18.848 2.426 30.356.181 8.434-1.435 15.418-1.502 20.899-.216 5.482 1.287 10.368 4.017 14.64 8.206 5.053 4.955 7.553 9.8 7.493 14.494-.081 4.707-2.706 8.649-7.935 11.864-5.314 3.267-11.196 4.08-17.551 2.469-6.405-1.625-12.816-5.619-19.248-11.925l-11.042 6.788c9.188 9.01 18.536 14.819 28.102 17.519 9.301 2.605 17.948 2.075 25.965-1.431l13.379 13.119 9.251-5.688-13.272-13.014.099-.103c6.407-5.319 9.236-11.585 8.494-18.762-.736-7.136-5.018-14.594-12.829-22.253-4.918-4.823-10.029-8.537-15.309-11.156-5.274-2.578-10.99-4.194-17.142-4.81-6.174-.602-13.445-.187-21.806 1.288s-15.255 1.661-20.713.532-10.573-4.02-15.304-8.658c-5.109-5.01-7.859-9.701-8.175-14.033-.365-4.347 1.828-7.98 6.557-10.888 4.522-2.78 10.093-3.101 16.604-.937 6.505 2.125 13.055 6.419 19.623 12.859l.487.477 10.98-6.75-.487-.477c-9.514-9.329-18.855-15.531-28.023-18.604-9.216-3.088-17.695-3.092-25.418-.026l-.042.026z" fill="#3658c1"/><path d="m1785.868 2063.835c-.255 0-.508-.098-.701-.286l-12.901-12.65c-8.093 3.372-16.841 3.78-26.012 1.211-9.702-2.737-19.301-8.715-28.533-17.767-.22-.216-.328-.52-.293-.826.034-.306.208-.578.47-.739l11.042-6.788c.392-.24.896-.183 1.224.138 6.3 6.178 12.623 10.104 18.793 11.669 6.084 1.546 11.732.753 16.781-2.351 4.944-3.04 7.384-6.647 7.459-11.029.057-4.395-2.363-9.027-7.193-13.764-4.11-4.029-8.876-6.703-14.168-7.945-5.347-1.255-12.245-1.179-20.502.228-11.587 2.262-21.952 2.194-30.786-.202-8.839-2.396-17.153-7.368-24.711-14.778-7.736-7.586-12.206-15.129-13.284-22.417-1.044-6.923 1.048-12.968 6.221-17.982l-14.578-14.294c-.22-.215-.328-.52-.293-.826.034-.306.208-.578.47-.739l9.25-5.688c.392-.24.896-.184 1.224.138l14.83 14.542c7.775-2.927 16.365-2.852 25.544.224 9.269 3.107 18.826 9.445 28.405 18.839l.487.478c.22.216.328.521.293.826s-.208.578-.47.739l-10.98 6.75c-.392.241-.896.185-1.224-.138l-.487-.478c-6.434-6.309-12.905-10.556-19.233-12.623-6.207-2.061-11.511-1.778-15.77.838-4.428 2.723-6.418 5.979-6.084 9.953.296 4.062 2.947 8.567 7.879 13.402 4.571 4.482 9.552 7.306 14.806 8.394 5.279 1.093 12.122.91 20.336-.537 8.364-1.476 15.792-1.913 22.077-1.299 6.214.621 12.096 2.271 17.484 4.906 5.377 2.666 10.614 6.48 15.57 11.34 7.947 7.794 12.362 15.486 13.123 22.865.748 7.227-1.983 13.617-8.118 19.009l12.502 12.259c.22.215.328.52.293.826-.034.306-.208.578-.47.739l-9.251 5.688c-.16.096-.341.145-.521.145zm-13.38-15.119c.256 0 .509.099.7.286l12.821 12.572 7.496-4.608-12.358-12.118c-.391-.383-.401-1.01-.022-1.405l.099-.104c.026-.027.054-.054.083-.078 6.103-5.067 8.841-11.086 8.138-17.89-.712-6.902-4.929-14.184-12.534-21.643-4.805-4.711-9.87-8.403-15.053-10.974-5.17-2.527-10.823-4.112-16.798-4.71-6.101-.594-13.347-.166-21.533 1.277-8.466 1.494-15.562 1.67-21.089.527-5.636-1.167-10.952-4.17-15.801-8.925-5.29-5.186-8.14-10.123-8.473-14.673-.396-4.723 1.969-8.701 7.031-11.813 4.785-2.942 10.654-3.289 17.443-1.034 6.596 2.154 13.304 6.537 19.937 13.024l9.223-5.669c-9.216-8.949-18.37-14.989-27.213-17.953-8.931-2.993-17.246-3.01-24.709-.053-.375.16-.84.105-1.133-.182l-14.739-14.452-7.495 4.607 14.411 14.131c.197.193.306.46.3.736-.006.275-.126.537-.332.722-5.208 4.675-7.347 10.368-6.358 16.924 1.013 6.851 5.288 14.011 12.706 21.285 7.31 7.168 15.329 11.971 23.834 14.276 8.535 2.314 18.596 2.369 29.903.165 8.547-1.454 15.712-1.523 21.319-.208 5.652 1.327 10.737 4.175 15.111 8.465 5.235 5.134 7.856 10.255 7.792 15.222-.086 5.053-2.917 9.324-8.411 12.702-5.526 3.398-11.689 4.269-18.32 2.587-6.332-1.606-12.769-5.521-19.141-11.636l-9.282 5.707c8.703 8.315 17.699 13.824 26.752 16.378 8.95 2.509 17.459 2.041 25.292-1.384.131-.054.268-.081.403-.081z" fill="#111"/></svg>