<?xml version="1.0" encoding="UTF-8" standalone="no"?><!DOCTYPE svg PUBLIC "-//W3C//DTD SVG 1.1//EN" "http://www.w3.org/Graphics/SVG/1.1/DTD/svg11.dtd"><svg width="100%" height="100%" viewBox="0 0 5906 5906" version="1.1" xmlns="http://www.w3.org/2000/svg" xmlns:xlink="http://www.w3.org/1999/xlink" xml:space="preserve" xmlns:serif="http://www.serif.com/" style="fill-rule:evenodd;clip-rule:evenodd;stroke-linecap:round;stroke-linejoin:round;stroke-miterlimit:1.5;"><g><path d="M3032.577,2544.054l674.943,816.809l282.221,0l-680.304,-816.809l-276.86,0Z" style="fill:#3d8c6f;stroke:#000;stroke-width:1px;"/></g><g><path d="M4077.415,3295.605l399.503,-721.147c0,0 28.08,-58.062 65.095,-1.276l154.44,281.426c0,0 -156.993,-31.146 -196.56,110.149l-159.546,327.645c0,0 -16.593,78.211 -146.782,68.462l-79.135,0c0,0 -71.477,0.487 -37.015,-65.258Z" style="fill:#3d8c6f;stroke:#000;stroke-width:1px;"/><path d="M4452.212,3211.784l133.151,-259.461c0,0 86.589,-115.329 174.811,12.434l186.247,332.39c0,0 30.224,62.959 -33.492,63.716l-131.517,0.841c0,0 -66.984,4.817 -115.996,-116.897c-49.012,-121.714 -182.98,-70.948 -213.204,-33.023Z" style="fill:#3d8c6f;stroke:#000;stroke-width:1px;"/></g><path d="M3713.407,2544.054l-202.248,242.198l134.601,166.07l343.981,-408.268l-276.334,0Z" style="fill:#3d8c6f;stroke:#000;stroke-width:1px;"/><path d="M3032.577,3360.863l283.242,0l195.34,-242.886l-148.469,-153.221l-330.113,396.107Z" style="fill:#3d8c6f;stroke:#000;stroke-width:1px;"/><g><path d="M956.578,3302.441l187.626,-562.878c0,0 62.542,-178.878 191.455,296.117c0,0 -42.12,161.009 -75.306,237.591c0,0 -22.975,103.386 -125.084,85.517l-139.124,-2.553c0,0 -61.266,4.732 -39.567,-53.794Z" style="fill:#3d8c6f;stroke:#000;stroke-width:1px;"/><path d="M1185.319,2630.269c0,0 211.366,-212.388 383.931,32.675c0,0 131.721,354.32 172.565,495.231c0,0 35.738,162.354 124.573,122.531c0,0 -204.219,205.24 -391.079,-42.886c0,0 -135.98,-403.986 -139.651,-420.192c-3.67,-16.207 -59.095,-223.71 -150.34,-187.358Z" style="fill:#3d8c6f;stroke:#000;stroke-width:1px;"/><path d="M1713.878,2863.692l85.772,-263.442c0,0 20.422,-64.05 97.004,-55.391l164.396,0c0,0 50.034,8.659 24.506,79.115l-173.586,522.8c0,0 -68.413,225.165 -198.092,-283.082Z" style="fill:#3d8c6f;stroke:#000;stroke-width:1px;"/></g><g><path d="M2202.013,2841.254c0,0 3.829,-308.159 285.906,-296.395c282.077,11.765 335.832,-5.383 510.547,0c0,0 16.446,263.209 -352.425,228.747l-220.812,-3.829c0,0 -173.292,1.276 -223.217,71.477Z" style="fill:#3d8c6f;stroke:#000;stroke-width:1px;"/><path d="M2716.242,2841.254l-366.317,0c-113.416,-6.695 -421.21,332.463 -2.553,519.609l238.681,0c0,0 200.39,-33.314 192.732,-217.11l-520.758,-1.276c-9.975,6.766 -92.432,-49.933 0,-80.411l246.339,-1.276c0,0 178.691,-3.953 211.877,-219.535Z" style="fill:#3d8c6f;stroke:#000;stroke-width:1px;"/></g></svg>